<svg xmlns="http://www.w3.org/2000/svg" shape-rendering="geometricPrecision" text-rendering="geometricPrecision" image-rendering="optimizeQuality" fill-rule="evenodd" clip-rule="evenodd" viewBox="0 0 512 512"><path fill="#999" fill-rule="nonzero" d="M256 0c70.68 0 134.69 28.66 181.01 74.99C483.34 121.31 512 185.32 512 256c0 70.68-28.66 134.69-74.99 181.01C390.69 483.34 326.68 512 256 512c-70.68 0-134.69-28.66-181.01-74.99C28.66 390.69 0 326.68 0 256c0-70.68 28.66-134.69 74.99-181.01C121.31 28.66 185.32 0 256 0z"/><path fill="#fff" fill-rule="nonzero" d="M256 19.48c65.31 0 124.46 26.48 167.25 69.27 42.79 42.79 69.27 101.93 69.27 167.24s-26.5 124.46-69.29 167.25l-1.18 1.09c-42.73 42.16-101.4 68.19-166.05 68.19-65.23 0-124.37-26.51-167.18-69.33-42.84-42.74-69.33-101.89-69.33-167.2 0-65.26 26.49-124.38 69.27-167.16C131.55 45.96 190.71 19.48 256 19.48z"/><path fill="#009B3A" fill-rule="nonzero" d="M256 39.59c119.52 0 216.41 96.89 216.41 216.4 0 119.52-96.89 216.42-216.41 216.42-119.51 0-216.4-96.9-216.4-216.42 0-119.51 96.89-216.4 216.4-216.4z"/><path fill="#FEDF00" fill-rule="nonzero" d="m58.46 257.21 196.67 125.54 196.66-125.54-196.66-125.52z"/><path fill="#002776" fill-rule="nonzero" d="M255.13 174.29c45.8 0 82.92 37.12 82.92 82.92 0 45.8-37.12 82.94-82.92 82.94-45.8 0-82.93-37.14-82.93-82.94s37.13-82.92 82.93-82.92z"/><path fill="#fff" fill-rule="nonzero" d="M179.28 223.72c9.26-1.35 18.76-2.03 28.46-2.03 49.32 0 94.44 17.77 129.47 47.15-.58 4.54-1.6 8.91-2.94 13.13-33.51-30.14-77.89-48.5-126.53-48.5-11.2 0-22.24 1.02-32.93 2.87 1.17-4.37 2.69-8.58 4.47-12.62z"/><path fill="#009B3A" d="M184.23 231.54c1.19-.17 1.95-1.34 1.78-2.69-.18-1.35-1.27-2.36-2.36-2.19-1.1.16-1.93 1.35-1.76 2.7.16 1.34 1.17 2.26 2.34 2.18zm143.64 40.5c.92.66 2.36.42 3.2-.69.84-1.09.84-2.51-.1-3.19-.84-.75-2.34-.42-3.1.68-.94 1.01-.94 2.51 0 3.2zm-.94 1.17c1.52 1.26 3.88.85 5.23-.84 1.35-1.68 1.17-4.04-.33-5.31-1.52-1.25-3.88-.84-5.23.86-1.34 1.68-1.17 4.04.33 5.29zm-7.99-9.09c-.41.68-.08 1.44.84 2.02.93.67 1.6.67 1.85.26.93-1.35-3.94-3.53-2.27-5.81 1.43-1.94 3.63-.26 4.47.33.84.6 2.11 2.11 1 3.63l-1.43-1.02c.51-.66 0-1.34-.66-1.93-.68-.51-1.27-.76-1.78-.08-.84 1 3.96 3.36 2.36 5.64-1.18 1.68-3.12.84-4.29-.1-1.09-.74-2.61-2.51-1.44-4.11l1.35 1.17zm-8.41-5.64c-.43.68 0 1.42.92 2.03.93.58 1.6.58 1.85.16.84-1.35-4.12-3.36-2.61-5.72 1.34-2.03 3.62-.43 4.46.08.84.5 2.19 1.93 1.17 3.53l-1.42-.92c.43-.76-.08-1.43-.84-1.85-.76-.43-1.35-.68-1.77 0-.76 1.09 4.13 3.2 2.69 5.56-1.09 1.75-3.03 1.01-4.37.16-1.1-.67-2.7-2.35-1.68-4.04l1.6 1.01zm-11.55-3.86 6.15 3.53.76-1.27-5.05-2.87 1.01-1.75 3.96 2.18.58-1.17-3.86-2.2.75-1.35 4.71 2.62.76-1.27-5.89-3.28-3.88 6.83zm-2.94-1.52c.39-.8 1.15-2.32.73-3.31.8-.1 1.53-.57 1.96-1.32.6-1.27.09-2.71-1.09-3.37l-4.04-2.03-3.61 7 1.34.67 1.25-2.62 2.79 1.44.05.02c.3 1.08-.3 2.3-.63 2.93l1.25.59zm-2.77-6.32 2.69 1.34c.5.26 1.09.1 1.34-.41.26-.51.08-1.11-.5-1.34l-2.69-1.35-.84 1.76zm-5.39-2.01 1.09.5-.07.19-.1.18-1.42 3.24-1.1-.5.38-.87c-.79.3-1.68.3-2.48-.05-1.86-.76-2.62-3.04-1.7-5.05.84-2.03 3.04-3.04 4.8-2.19 1.44.59 2.2 2.09 2.03 3.69l-1.43-.66c-.09-.76-.5-1.43-1.19-1.68-1.01-.51-2.36.16-2.86 1.42-.59 1.27-.24 2.62.85 3.12.78.29 1.62.1 2.27-.5l-1.17-.51.41-1.02 1.42.61.02-.02.25.11v-.01zm-12.56-2.46c1.11.43 2.36-.33 2.79-1.6.51-1.25 0-2.69-1.09-3.02-1.09-.43-2.36.33-2.79 1.6-.51 1.26 0 2.61 1.09 3.02zm-.49 1.35c1.86.68 3.95-.41 4.71-2.44.76-2.01-.08-4.29-1.94-4.96-1.85-.68-3.96.41-4.71 2.44-.77 2.11.09 4.29 1.94 4.96zm-6.49-2.27c.27-.85.79-2.47.24-3.39.84-.17 1.58-.8 1.87-1.66.42-1.27-.34-2.69-1.6-3.12l-4.3-1.35-2.61 7.5 1.44.42.92-2.78 2.96.91c.46 1 .05 2.32-.17 3.04l1.25.43zm-3.71-5.81 2.87.94c.51.15 1.09-.1 1.27-.69a.982.982 0 0 0-.68-1.26l-2.85-.92-.61 1.93zm-9.85-2.69 2.95.76c.51.08 1.11-.18 1.27-.76.09-.51-.16-1.09-.76-1.27l-2.95-.76-.51 2.03zm-2.51 3.88 1.42.33.76-2.87 3.04.77c1.35.33 2.69-.43 3.03-1.78.33-1.35-.43-2.69-1.78-3.02l-4.37-1.18-2.1 7.75zm-14.98-2.96 5.79 1.01.25-1.35-4.54-.76.35-1.75 3.61.58.25-1.26-3.61-.67.16-1.27 4.39.76.25-1.34-5.73-.94-1.17 6.99zm-16.43-1.84 1.35.16.51-5.47 1.09 5.55 1.26.17 2.02-5.3-.51 5.38 1.35.1.76-7.84-2.02-.16-2.02 5.21-1.1-5.47-1.93-.17-.76 7.84zm-10.02-.43 7.16.26v-1.43l-5.72-.25.08-2.03 4.46.17.08-1.34-4.54-.18.08-1.6 5.4.26.08-1.52-6.73-.26-.35 7.92zm-8.59-1.42h2.11c1.17 0 2.11-1.02 2.11-2.2v-.67c0-1.19-1.02-2.11-2.19-2.11l-2.2.08.17 4.9zm-1.42 1.5 3.71-.08c1.85-.08 3.35-1.6 3.35-3.45V227c0-1.86-1.6-3.38-3.45-3.38l-3.71.1.1 7.9zm-3.29.18c-.07-.86-.19-2.62-1.07-3.23.67-.48 1.1-1.29.99-2.16-.08-1.34-1.27-2.36-2.62-2.28l-4.45.33.42 7.84 1.42-.09-.16-2.95 3.04-.25c.86.74.97 2.15 1.08 2.96l1.35-.17zm-5.55-4.04 3.03-.18c.58-.08 1.01-.5.92-1.09 0-.59-.49-1.01-1.1-.93l-3.02.25.17 1.95zm-7.58 5.21c1.93-.26 3.37-2.19 3.02-4.37-.25-2.19-2.01-3.71-4.04-3.46-1.93.26-3.27 2.19-3.02 4.37.33 2.11 2.11 3.71 4.04 3.46z"/><path fill="#fff" fill-rule="nonzero" d="m187.43 238.78.81 2.44h2.57l-2.06 1.52.79 2.44-2.09-1.48-2.11 1.48 1.14-2.19-2.4-1.77h2.56l.79-2.44zm91.35-4.37.82-2.49-2.17-1.47h2.63l.82-2.53.76 2.53h2.62l-2.16 1.47.81 2.49-2.06-1.52-2.07 1.52zm-81.91 45.62-.79-2.44 2.06-1.52h-2.58l-.8-2.43-.77 2.43h-2.6l2.06 1.52-.79 2.44 2.1-1.48 2.11 1.48zm57.58 43.03.26-.87-.67-.48h.84l.25-.85.24.85h.86l-.69.49.26.86-.67-.49-.68.49zm-34.68-18.96.79-2.5-2.06-1.44h2.57l.81-2.53.8 2.53h2.55l-2.1 1.47.85 2.47-2.14-1.52-2.07 1.52zm52.28 1.52.49-1.63-1.41-.98h1.71l.55-1.68.56 1.68h1.72l-1.41.98.48 1.63-1.35-1.02-1.34 1.02zm13.63 2.03.49-1.66-1.41-1.03h1.74l.53-1.6.54 1.6h1.74l-1.4 1.03.56 1.66-1.43-1-1.36 1zm-7.49 7.82.68-2.07-1.77-1.3h2.22l.64-2.01.65 2.01h2.13l-1.71 1.28.61 2.09-1.69-1.28-1.76 1.28zm-28.2-30.39.36-1.17-1.03-.68h1.22l.38-1.17.43 1.17h1.17l-.97.67.38 1.18-.96-.72-.98.72zm-4.63-5.22.57-1.62-1.41-.98h1.71l.56-1.69.57 1.69h1.71l-1.43 1 .49 1.6-1.36-.98-1.41.98zm17.6.51.69-2.06-1.71-1.22h2.11l.68-2.11.68 2.11h2.09l-1.69 1.2.68 2.08-1.76-1.27-1.77 1.27zm-9.93 16.93.79-2.44-2.06-1.52h2.58l.79-2.44.79 2.44h2.57l-2.06 1.52.81 2.44-2.11-1.49-2.1 1.49zm41.91 7.49.5-1.57-1.41-1.05h1.71l.55-1.68.57 1.68h1.71l-1.39 1.03.55 1.59-1.42-.99-1.37.99zm14.83-2.11.66-2.03-1.68-1.25h2.11l.67-2.03.68 2.03h2.1l-1.68 1.25.67 2.03-1.76-1.22-1.77 1.22zm-6.32 3.71.55-1.65-1.39-.97h1.73l.53-1.68.57 1.68h1.72l-1.42.98.5 1.64-1.37-1-1.42 1zm-8.33 14.9.55-1.65-1.39-.97h1.71l.55-1.68.51 1.68h1.68l-1.31.97.47 1.65-1.36-.99-1.41.99zm-.18-7.83.62-2.09-1.71-1.28h2.11l.68-2.03.66 2.03h2.19l-1.76 1.28.67 2.09-1.74-1.28-1.72 1.28zm19.96-17.43.66-1.97-1.75-1.31h2.1l.67-2.03.68 2.03h2.18l-1.75 1.27.66 2.01-1.72-1.22-1.73 1.22zm8.42-6.99.56-1.66-1.4-1.03h1.73l.54-1.6.47 1.6h1.71l-1.33 1.02.5 1.67-1.37-1.04-1.41 1.04zm-12.21.18.81-2.5-2.07-1.46h2.56l.81-2.46.79 2.46h2.57l-2.06 1.46.81 2.5-2.11-1.55-2.11 1.55zm-102.96 6.4.55-1.67-1.39-1.04h1.75l.53-1.6.46 1.6h1.72l-1.38 1.07.54 1.64-1.39-1.03-1.39 1.03zm2.18-7.76.62-2.08-1.71-1.28h2.11l.68-2.03.66 2.03h2.2l-1.77 1.27.66 2.09-1.75-1.27-1.7 1.27zm-27.44-.84.68-2.06-1.78-1.22h2.17l.62-2.03.67 2.03h2.18l-1.76 1.2.67 2.08-1.73-1.29-1.72 1.29zm19.03-13.56.35-1.12-1.03-.73h1.25l.45-1.17.36 1.17h1.24l-1.03.73.35 1.12-.97-.71-.97.71zm51.44-.51.68-2.1-1.69-1.25h2.1l.68-2.03.67 2.03h2.1l-1.69 1.25.68 2.1-1.76-1.26-1.77 1.26zm22.98-18 .5-1.62-1.42-.99h1.73l.53-1.68.57 1.68h1.71l-1.42.99.49 1.62-1.35-.98-1.34.98zm-54.56 8.08.68-2.08-1.77-1.28h2.2l.66-2.03.69 2.03h2.09l-1.7 1.28.6 2.08-1.68-1.27-1.77 1.27z"/></svg>