<svg xmlns="http://www.w3.org/2000/svg" shape-rendering="geometricPrecision" text-rendering="geometricPrecision" image-rendering="optimizeQuality" fill-rule="evenodd" clip-rule="evenodd" viewBox="0 0 512 512">
    <path fill="#999" fill-rule="nonzero" d="M256 0c70.68 0 134.69 28.66 181.01 74.99C483.34 121.31 512 185.32 512 256c0 70.68-28.66 134.69-74.99 181.01C390.69 483.34 326.68 512 256 512c-70.68 0-134.69-28.66-181.01-74.99C28.66 390.69 0 326.68 0 256c0-70.68 28.66-134.69 74.99-181.01C121.31 28.66 185.32 0 256 0z"/>
    <path fill="#fff" fill-rule="nonzero" d="M256 19.48c65.3 0 124.46 26.48 167.25 69.27l1.09 1.18c42.14 42.71 68.18 101.37 68.18 166.06 0 65.31-26.5 124.46-69.29 167.25l-1.18 1.09c-42.73 42.16-101.4 68.19-166.05 68.19-65.23 0-124.37-26.51-167.18-69.33-42.84-42.74-69.33-101.89-69.33-167.2 0-65.31 26.48-124.45 69.27-167.24C131.55 45.96 190.7 19.48 256 19.48z"/>
    <path fill="#C52026" fill-rule="nonzero" d="M284.83 470.5h-57.65C121.28 456.4 39.6 365.74 39.6 255.99c0-119.51 96.89-216.4 216.4-216.4 119.52 0 216.41 96.89 216.41 216.4 0 109.75-81.69 200.41-187.58 214.51z"/>
    <path fill="#FFC60B" fill-rule="nonzero" d="M53.55 332.58h404.9c9.02-23.8 13.96-49.62 13.96-76.59 0-42.52-12.26-82.16-33.45-115.6H73.05c-21.19 33.44-33.45 73.08-33.45 115.6 0 26.97 4.94 52.79 13.95 76.59z"/>
    <path fill="#C8B32F" fill-rule="nonzero" d="M121.06 196.04h17.15v-4.48h-17.15z"/>
    <path fill-rule="nonzero" d="M121.21 195.89h16.85v-4.18h-16.85v4.18zm17 .3h-17.3v-4.78h17.45v4.78h-.15z"/>
    <path fill="#C8B32F" fill-rule="nonzero" d="M122.9 199.06c.09-.08.17-.08.27-.08h12.84c.1 0 .27 0 .37.1-.46-.19-.73-.56-.73-1.02 0-.46.36-.91.82-1.01-.09 0-.28.1-.36.1h-12.85c-.09 0-.27 0-.36-.1h.09c.46.19.73.55.73 1.01-.09.46-.36.83-.82 1z"/>
    <path fill-rule="nonzero" d="M122.81 198.94c.07-.05.13-.08.19-.09l.02-.01c.12-.07.22-.15.3-.25.12-.15.21-.33.25-.54 0-.19-.06-.36-.15-.49-.08-.11-.17-.2-.28-.27a.582.582 0 0 1-.35-.13c-.06-.06-.05-.16 0-.22a.15.15 0 0 1 .11-.04c.16 0 .17.02.32.1h12.89l.11-.04c.09-.03.18-.06.25-.06s.14.05.15.12c.01.08-.04.16-.12.18-.19.04-.37.16-.49.31-.13.16-.21.36-.21.55 0 .2.05.37.15.51.09.12.19.21.32.29.07.02.15.05.21.11s.06.16 0 .21c-.04.05-.11.06-.16.04l-.16-.08c-3.67-.2-9.38-.19-13.06 0l-.15.06c-.07.03-.16-.01-.19-.08-.02-.07 0-.14.05-.18zm.7-.11h12.26l-.06-.07a1.204 1.204 0 0 1 .06-1.44l.02-.02H123.6l.06.07c.14.2.21.44.21.69v.05c-.06.25-.16.48-.32.67l-.04.05z"/>
    <path fill="#C8B32F" fill-rule="nonzero" d="M123.17 198.98h12.84c.46 0 .83.27.83.64 0 .36-.37.65-.83.65h-12.84c-.46 0-.82-.29-.82-.65.09-.37.45-.64.82-.64z"/>
    <path fill-rule="nonzero" d="M123.17 198.83h12.84c.27 0 .51.08.68.22.18.14.3.34.3.57 0 .23-.12.43-.3.57-.17.14-.41.23-.68.23h-12.84c-.26 0-.51-.09-.68-.23a.725.725 0 0 1-.3-.57l.01-.04c.06-.21.19-.4.36-.53.18-.14.39-.22.61-.22zm12.84.3h-12.84c-.15 0-.3.06-.43.16-.11.08-.2.21-.24.34 0 .13.07.25.18.33.12.1.29.15.49.15h12.84c.2 0 .37-.05.49-.15.11-.09.18-.21.18-.34a.39.39 0 0 0-.17-.33c-.12-.1-.3-.16-.5-.16z"/>
    <path fill="#C8B32F" fill-rule="nonzero" d="M123.17 196.04h12.84c.46 0 .83.28.83.55 0 .29-.37.56-.83.56h-12.84c-.46 0-.82-.29-.82-.56.09-.27.45-.55.82-.55z"/>
    <path fill-rule="nonzero" d="M123.17 195.89h12.84c.25 0 .48.07.65.19.2.13.33.32.33.51 0 .2-.13.39-.32.52-.17.11-.4.19-.66.19h-12.84c-.25 0-.48-.08-.65-.19-.2-.14-.33-.33-.33-.52l.01-.05c.06-.17.21-.34.39-.46.17-.12.37-.19.58-.19zm12.84.3h-12.84a.7.7 0 0 0-.41.14c-.12.08-.22.18-.26.28.01.09.08.17.18.25.13.08.3.14.49.14h12.84c.2 0 .37-.06.49-.14.11-.08.18-.17.18-.27 0-.09-.07-.19-.18-.26a.858.858 0 0 0-.49-.14z"/>
    <path fill="#265EAC" fill-rule="nonzero" d="M141.6 271.69c-1.19 0-2.2-.27-3.02-.64-.73-.36-1.84-.65-2.93-.65-1.21 0-2.2.29-3.04.65-.73.37-1.82.64-3.03.64-1.18 0-2.2-.27-3.02-.73-.73-.37-1.84-.65-2.93-.65-1.19 0-2.2.28-2.93.65-.83.36-1.84.63-3.03.63v1.84c1.19 0 2.28-.27 3.03-.63.73-.37 1.84-.65 2.93-.65s2.1.28 2.93.65c.74.36 1.84.63 3.02.63 1.21 0 2.2-.27 3.03-.63.74-.37 1.83-.65 3.04-.65 1.19 0 2.2.28 2.93.65.82.36 1.83.63 3.02.63v-1.74z"/>
    <path fill-rule="nonzero" d="M141.45 271.84c-.51-.01-.99-.07-1.43-.16-.55-.12-1.06-.29-1.5-.49-.38-.19-.85-.35-1.37-.47a7.334 7.334 0 0 0-3.13.02c-.48.11-.94.27-1.35.45-.39.19-.88.36-1.43.48-.51.1-1.07.17-1.66.17-.59 0-1.14-.07-1.65-.19-.53-.13-1.01-.32-1.44-.56-.37-.18-.84-.35-1.36-.46a6.995 6.995 0 0 0-3.01-.01 5.9 5.9 0 0 0-1.35.47 7.425 7.425 0 0 1-2.95.65v1.54c.51-.01.99-.07 1.43-.16a6.55 6.55 0 0 0 1.38-.46c.39-.19.89-.37 1.43-.49.5-.11 1.04-.17 1.57-.17.51 0 1.02.06 1.49.16.55.13 1.05.3 1.5.5.38.18.85.34 1.38.46.49.1 1.02.16 1.58.16.6 0 1.14-.07 1.62-.18.5-.11.94-.26 1.35-.44.4-.2.9-.37 1.46-.49.5-.11 1.06-.17 1.64-.17.56 0 1.09.06 1.57.16.54.13 1.02.3 1.42.5.43.19.91.35 1.44.46.42.09.88.15 1.37.16v-1.44zm-1.37-.46c.47.1.98.16 1.52.16h.15v2.04h-.15c-.56 0-1.09-.06-1.58-.16-.55-.12-1.06-.29-1.5-.49a6.02 6.02 0 0 0-1.36-.47c-.46-.1-.97-.16-1.51-.16-.56 0-1.1.06-1.58.16-.54.12-1.02.28-1.4.47-.42.19-.89.35-1.4.47-.52.11-1.08.18-1.69.18-.57 0-1.13-.06-1.64-.17a5.79 5.79 0 0 1-1.44-.48c-.44-.19-.92-.36-1.44-.47a6.594 6.594 0 0 0-2.93.01c-.52.11-1 .28-1.36.46-.41.19-.9.37-1.46.48-.5.11-1.06.17-1.64.17h-.15v-2.14h.15c.55 0 1.06-.06 1.53-.16.53-.11 1.01-.27 1.44-.46.39-.2.87-.37 1.41-.49a7.22 7.22 0 0 1 1.58-.17c.53 0 1.07.07 1.56.18.55.12 1.05.29 1.43.48.42.23.88.42 1.38.54.48.11 1.01.18 1.58.18.57 0 1.11-.06 1.59-.17.53-.11 1-.27 1.37-.45.43-.19.9-.36 1.42-.47.51-.12 1.08-.2 1.69-.2.53 0 1.07.07 1.56.18.55.12 1.04.29 1.43.49.43.19.91.35 1.44.46z"/>
    <path fill="#CDCCCB" fill-rule="nonzero" d="M141.6 273.52c-1.19 0-2.2-.27-3.02-.65-.73-.36-1.84-.63-2.93-.63-1.21 0-2.2.27-3.04.63-.73.38-1.82.65-3.03.65-1.18 0-2.2-.27-3.02-.65-.73-.36-1.84-.63-2.93-.63-1.19 0-2.2.27-2.93.63-.83.38-1.84.65-3.03.65v1.84c1.19 0 2.28-.28 3.03-.65.73-.36 1.84-.63 2.93-.63s2.1.27 2.93.63c.74.37 1.84.75 3.02.75 1.21 0 2.2-.29 3.03-.65.74-.37 1.83-.64 3.04-.64 1.19 0 2.2.27 2.93.64.82.36 1.83.65 3.02.65v-1.94z"/>
    <path fill-rule="nonzero" d="M141.45 273.67c-.51-.01-1-.07-1.44-.16-.55-.12-1.05-.29-1.5-.5-.36-.18-.83-.34-1.34-.45a7.61 7.61 0 0 0-1.52-.17c-.59 0-1.14.07-1.63.18-.49.11-.93.26-1.34.44-.39.2-.88.37-1.43.49-.51.11-1.08.18-1.67.18-.57 0-1.1-.07-1.59-.17-.55-.12-1.05-.29-1.5-.5-.36-.18-.83-.34-1.34-.45-.48-.11-1.01-.17-1.52-.17-.55 0-1.07.06-1.53.16-.51.11-.96.27-1.33.46-.45.21-.95.38-1.5.5-.45.09-.93.15-1.45.16v1.54c.5-.01.98-.07 1.42-.16.53-.12 1.01-.29 1.39-.47.39-.2.88-.37 1.41-.48.51-.11 1.05-.17 1.59-.17.52 0 1.03.06 1.51.16.53.12 1.03.29 1.48.49.41.19.92.4 1.5.54.45.11.95.19 1.46.19.59 0 1.13-.07 1.62-.19.5-.11.94-.27 1.35-.45.39-.2.89-.36 1.44-.48.51-.1 1.07-.17 1.66-.17.57 0 1.1.07 1.58.17.54.11 1.02.29 1.41.48.4.18.85.34 1.35.45.44.11.93.17 1.46.18v-1.63zm-1.38-.46c.47.1.98.16 1.53.16h.15v2.24h-.15c-.6 0-1.16-.08-1.68-.19-.51-.12-.98-.29-1.4-.48-.38-.18-.83-.35-1.35-.46-.46-.1-.97-.16-1.52-.16-.57 0-1.11.07-1.59.17-.54.11-1.01.27-1.39.45-.42.19-.89.36-1.4.48-.51.11-1.08.19-1.69.19-.54 0-1.06-.08-1.53-.2-.6-.14-1.14-.36-1.56-.56-.42-.19-.9-.35-1.42-.46-.45-.1-.94-.16-1.44-.16-.52 0-1.04.06-1.52.16-.51.11-.98.28-1.34.46-.41.19-.91.37-1.47.49-.5.11-1.06.17-1.63.17h-.15v-2.14h.15c.55 0 1.07-.06 1.54-.16.52-.11 1-.28 1.43-.47.39-.2.86-.37 1.4-.48.48-.11 1.02-.17 1.59-.17.54 0 1.08.07 1.58.17.53.12 1.02.29 1.41.48.42.19.9.36 1.43.47.47.1.98.16 1.53.16.57 0 1.12-.06 1.61-.16a5.9 5.9 0 0 0 1.35-.47c.43-.19.9-.35 1.42-.46.52-.12 1.08-.19 1.69-.19.53 0 1.08.07 1.58.17.53.12 1.02.29 1.41.48.42.19.9.36 1.43.47z"/>
    <path fill="#265EAC" fill-rule="nonzero" d="M141.6 275.36c-1.19 0-2.2-.28-3.02-.65-.73-.36-1.84-.63-2.93-.63-1.21 0-2.2.27-3.04.63-.73.37-1.82.65-3.03.65-1.18 0-2.2-.28-3.02-.74-.73-.37-1.84-.64-2.93-.64-1.19 0-2.2.27-2.93.64-.83.38-1.84.65-3.03.65v1.83c1.19 0 2.28-.28 3.03-.65.73-.36 1.84-.63 2.93-.63s2.1.18 2.93.63c.74.37 1.84.65 3.02.65 1.21 0 2.2-.28 3.03-.65.74-.36 1.83-.63 3.04-.63 1.19 0 2.2.27 2.93.63.82.37 1.83.65 3.02.65v-1.74z"/>
    <path fill-rule="nonzero" d="M141.45 275.51a7.36 7.36 0 0 1-1.53-.19c-.52-.12-.99-.29-1.4-.47-.37-.18-.84-.35-1.35-.46-.48-.1-1.01-.16-1.52-.16-.59 0-1.14.07-1.63.18-.48.1-.94.26-1.35.44-.39.19-.89.37-1.45.49-.5.11-1.06.17-1.64.17-.58 0-1.13-.07-1.63-.19a5.92 5.92 0 0 1-1.46-.57c-.36-.18-.83-.34-1.34-.45a7.61 7.61 0 0 0-1.52-.17c-.55 0-1.07.06-1.53.16a5.9 5.9 0 0 0-1.33.46c-.45.21-.95.38-1.5.5-.45.1-.93.16-1.45.17v1.53c.5-.01.98-.07 1.42-.16.53-.12 1.01-.29 1.39-.47.39-.19.88-.36 1.41-.48.51-.11 1.05-.17 1.59-.17.55 0 1.09.04 1.59.15.51.1.98.26 1.4.5.38.18.86.35 1.4.47.48.1 1.01.16 1.56.16.59 0 1.13-.07 1.62-.18.49-.11.94-.28 1.35-.45.4-.2.89-.37 1.44-.48.51-.11 1.07-.17 1.66-.17.57 0 1.1.06 1.59.17.53.11 1 .28 1.4.48.4.17.86.34 1.35.45.44.1.93.17 1.46.18v-1.44zm-1.46-.48c.49.11 1.03.18 1.61.18h.15v2.04h-.15c-.6 0-1.16-.07-1.68-.19s-.99-.28-1.4-.47c-.38-.19-.83-.35-1.35-.46-.46-.1-.97-.16-1.52-.16-.57 0-1.11.06-1.6.16-.53.11-1 .28-1.38.46-.42.19-.88.35-1.4.47-.51.12-1.08.19-1.69.19-.57 0-1.12-.06-1.62-.17a6.17 6.17 0 0 1-1.47-.49c-.4-.22-.85-.38-1.33-.48-.48-.09-.99-.14-1.53-.14-.52 0-1.04.06-1.52.17-.51.11-.98.27-1.34.45-.41.2-.91.37-1.47.49-.5.11-1.06.17-1.63.17h-.15v-2.13h.15c.55 0 1.07-.06 1.54-.16.52-.12 1-.28 1.43-.48.39-.2.86-.37 1.4-.48.48-.1 1.02-.17 1.59-.17.54 0 1.08.07 1.58.17.53.12 1.03.29 1.41.48.42.23.89.42 1.4.55a7.153 7.153 0 0 0 3.14.01c.53-.11 1.01-.28 1.38-.46.43-.19.9-.35 1.42-.47a8.11 8.11 0 0 1 1.69-.18c.54 0 1.08.06 1.58.17.53.11 1.02.28 1.41.47.4.18.86.34 1.35.46z"/>
    <path fill="#CDCCCB" fill-rule="nonzero" d="M141.6 279.11c-1.19 0-2.2-.26-3.02-.63-.73-.38-1.84-.65-2.93-.65-1.21 0-2.2.27-3.04.65-.73.37-1.82.63-3.03.63-1.18 0-2.2-.26-3.02-.72-.73-.37-1.84-.65-2.93-.65-1.19 0-2.2.19-2.93.65-.83.36-1.84.63-3.03.63v-1.82c1.19 0 2.28-.29 3.03-.75.73-.36 1.84-.63 2.93-.63s2.1.18 2.93.63c.74.37 1.84.65 3.02.65 1.21 0 2.2-.28 3.03-.65.74-.36 1.83-.63 3.04-.63 1.19 0 2.2.27 2.93.63.82.37 1.83.65 3.02.65v2.01z"/>
    <path fill-rule="nonzero" d="M141.6 279.27c-.56 0-1.09-.07-1.58-.17-.55-.11-1.06-.28-1.5-.48a5.68 5.68 0 0 0-1.34-.47c-.48-.1-1.01-.17-1.53-.17-.59 0-1.14.07-1.63.18-.49.11-.94.27-1.35.46-.39.19-.88.36-1.43.48-.51.1-1.07.17-1.66.17-.59 0-1.14-.07-1.65-.19-.53-.13-1.01-.32-1.44-.56-.37-.18-.84-.35-1.36-.46-.47-.11-.99-.17-1.5-.17-.59 0-1.13.05-1.61.15-.47.1-.89.25-1.24.47l-.02.01c-.45.2-.95.37-1.5.49-.49.1-1.02.16-1.59.16h-.15v-2.12h.15c.58 0 1.13-.07 1.62-.19.51-.13.97-.31 1.33-.53l.01-.01c.39-.19.88-.36 1.41-.48.51-.11 1.05-.17 1.59-.17.55 0 1.09.04 1.59.15.51.1.98.26 1.4.5.38.18.86.35 1.4.47.48.1 1.01.16 1.56.16.59 0 1.13-.07 1.62-.18.49-.11.94-.28 1.35-.45.4-.2.89-.37 1.44-.48.51-.11 1.07-.17 1.66-.17.57 0 1.1.06 1.59.17.53.11 1 .28 1.4.48.4.17.86.34 1.35.45.49.11 1.03.18 1.61.18h.15v2.32h-.15zm-1.52-.46c.42.08.88.14 1.37.15v-1.71a7.36 7.36 0 0 1-1.53-.19c-.52-.12-.99-.28-1.4-.47-.38-.19-.83-.35-1.35-.46-.46-.1-.97-.16-1.52-.16-.57 0-1.11.06-1.6.16-.53.11-1 .28-1.38.46-.42.19-.88.35-1.4.47-.51.12-1.08.19-1.69.19-.57 0-1.12-.06-1.62-.17a6.17 6.17 0 0 1-1.47-.49c-.4-.22-.85-.38-1.33-.48-.48-.09-.99-.14-1.53-.14-.52 0-1.04.06-1.52.17-.51.11-.98.27-1.34.45-.39.24-.87.43-1.4.56-.48.12-1 .19-1.55.2v1.52c.49-.01.95-.07 1.37-.16.53-.11 1.01-.27 1.44-.46.37-.23.82-.4 1.33-.51.5-.11 1.07-.15 1.67-.15.53 0 1.07.06 1.57.17.54.12 1.04.3 1.42.49.42.23.88.41 1.38.53.48.12 1.01.18 1.58.18.57 0 1.11-.06 1.59-.16.53-.11 1-.27 1.37-.45.43-.2.9-.37 1.42-.48.51-.12 1.08-.19 1.69-.19.54 0 1.09.07 1.59.18.53.11 1.02.28 1.4.48.43.19.91.36 1.44.47z"/>
    <path fill="#265EAC" fill-rule="nonzero" d="M141.6 280.95c-1.19 0-2.2-.27-3.02-.65-.73-.36-1.84-.63-2.93-.63-1.21 0-2.2.27-3.04.63-.73.38-1.82.65-3.03.65-1.18 0-2.2-.27-3.02-.65-.73-.36-1.84-.63-2.93-.63-1.19 0-2.2.27-2.93.63-.83.38-1.84.65-3.03.65v-1.84c1.19 0 2.28-.26 3.03-.72.73-.37 1.84-.65 2.93-.65s2.1.28 2.93.65c.74.36 1.84.72 3.02.72 1.21 0 2.2-.26 3.03-.63.74-.38 1.83-.65 3.04-.65 1.19 0 2.2.27 2.93.65.82.46 1.83.63 3.02.63v1.84z"/>
    <path fill-rule="nonzero" d="M141.6 281.1c-.57 0-1.1-.06-1.59-.16-.55-.12-1.05-.3-1.5-.5-.36-.18-.83-.34-1.34-.45-.48-.11-1.01-.17-1.52-.17-.6 0-1.14.07-1.63.18-.49.1-.93.26-1.34.44-.39.2-.88.37-1.43.49-.51.11-1.08.17-1.67.17-.57 0-1.1-.06-1.59-.16-.55-.12-1.05-.3-1.5-.5-.36-.18-.83-.34-1.34-.45-.48-.11-1-.17-1.52-.17-.55 0-1.07.06-1.53.16-.51.11-.96.27-1.33.46-.45.2-.95.38-1.5.5-.49.1-1.03.16-1.6.16h-.15v-2.14h.15c.58 0 1.14-.06 1.64-.18s.95-.3 1.31-.52l.01-.01c.39-.19.89-.37 1.43-.49.5-.11 1.04-.17 1.57-.17.51 0 1.02.06 1.49.16.55.13 1.05.3 1.5.5.4.2.91.4 1.48.53.46.11.96.18 1.48.18.6 0 1.14-.06 1.62-.17.49-.11.94-.27 1.35-.45.39-.2.88-.37 1.43-.49.51-.1 1.08-.17 1.67-.17.57 0 1.11.06 1.6.17.53.12 1.01.29 1.4.5.4.22.84.38 1.33.47.49.1 1.04.14 1.62.14h.15v2.14h-.15zm-1.53-.46c.43.09.89.15 1.38.16v-1.54c-.54 0-1.05-.05-1.52-.14-.52-.1-1-.27-1.42-.51a5.89 5.89 0 0 0-1.33-.47c-.46-.1-.97-.16-1.53-.16-.57 0-1.12.07-1.61.17-.52.11-.99.27-1.36.46-.43.19-.9.36-1.41.47-.52.12-1.08.19-1.69.19-.54 0-1.07-.08-1.55-.2-.59-.14-1.12-.34-1.53-.55-.44-.19-.92-.36-1.44-.47a6.594 6.594 0 0 0-2.93.01c-.52.11-.99.28-1.36.46-.39.24-.86.42-1.39.55-.48.12-1.01.18-1.56.19v1.54c.5-.01.96-.07 1.39-.16.52-.11 1-.28 1.43-.47.39-.2.86-.37 1.4-.49.48-.1 1.02-.16 1.59-.16.54 0 1.08.06 1.58.17.53.12 1.02.28 1.41.48.42.19.9.36 1.43.47.47.1.98.16 1.53.16.57 0 1.12-.06 1.61-.17.52-.11.98-.27 1.35-.46.43-.19.9-.35 1.42-.47a8.11 8.11 0 0 1 1.69-.18c.54 0 1.08.06 1.58.17.53.12 1.03.28 1.41.48.42.19.9.36 1.43.47z"/>
    <path fill="#C8B32F" fill-rule="nonzero" d="M122.9 264.09c0 .17.09.27.09.46 0 1.09-1.01 2.01-2.2 2.01h17.6c-1.19 0-2.2-.92-2.2-2.01 0-.19 0-.29.09-.46H122.9z"/>
    <path fill-rule="nonzero" d="m123.08 264.24.01.02c.03.08.06.17.06.29 0 .58-.28 1.13-.71 1.52-.14.13-.3.24-.47.34h15.24c-.17-.1-.33-.21-.47-.34-.43-.39-.71-.94-.71-1.52 0-.13 0-.22.03-.31h-12.98zm-.28.11c-.02-.08-.05-.16-.05-.26 0-.09.07-.16.15-.16h13.38l.07.02c.08.04.1.14.06.21-.07.14-.07.22-.07.39 0 .5.23.96.6 1.3.37.34.89.56 1.45.56v.3h-17.6v-.3c.56 0 1.08-.22 1.45-.56.37-.34.6-.8.6-1.3 0-.08-.02-.14-.04-.2z"/>
    <path fill="#C8B32F" fill-rule="nonzero" d="M123.17 262.88h12.84c.46 0 .83.29.83.56 0 .36-.37.65-.83.65h-12.84c-.46 0-.82-.29-.82-.65.09-.27.45-.56.82-.56z"/>
    <path fill-rule="nonzero" d="M123.17 262.73h12.84c.25 0 .48.08.65.19.2.14.33.33.33.52 0 .23-.12.43-.3.58-.17.13-.41.22-.68.22h-12.84c-.26 0-.51-.09-.68-.22-.18-.15-.3-.35-.3-.58l.01-.05c.06-.17.21-.35.39-.47.17-.11.37-.19.58-.19zm12.84.3h-12.84c-.14 0-.29.06-.41.14-.12.08-.22.19-.26.29 0 .12.07.24.18.32.12.1.29.15.49.15h12.84c.2 0 .37-.05.49-.15.11-.09.18-.21.18-.34 0-.09-.07-.19-.18-.27a.942.942 0 0 0-.49-.14z"/>
    <path fill="#C8B32F" fill-rule="nonzero" d="M120.87 271.05h17.52v-4.49h-17.52z"/>
    <path fill-rule="nonzero" d="M121.02 270.9h17.22v-4.19h-17.22v4.19zm17.37.31h-17.67v-4.8h17.82v4.8h-.15z"/>
    <path fill="#AC1F23" fill-rule="nonzero" d="M119.51 247.03c-1.74 1-2.94 2.01-2.75 2.57.09.46.63.82 1.45 1.37 1.28.92 2.03 2.38 1.38 3.12 1.01-.84 1.66-2.02 1.66-3.48 0-1.47-.65-2.76-1.74-3.58z"/>
    <path fill-rule="nonzero" d="M119.5 247.21c-.86.5-1.58.99-2.05 1.43-.41.38-.62.71-.55.91v.02c.04.19.19.37.41.57.24.21.58.43.99.71l.38.3c.52.46.93 1 1.14 1.51.12.3.18.59.15.86a4.224 4.224 0 0 0 1.13-2.91c0-.71-.15-1.37-.44-1.95-.27-.56-.67-1.06-1.16-1.45zm-2.25 1.21c.5-.47 1.27-1 2.19-1.52l.08-.05.08.06c.57.43 1.03.98 1.34 1.62.3.62.46 1.33.46 2.08 0 .73-.15 1.39-.44 1.98-.29.63-.74 1.17-1.27 1.62l-1.08.89.91-1.16c.21-.3.2-.72.02-1.17-.19-.47-.57-.97-1.06-1.39l-.36-.28c-.41-.28-.75-.52-1.01-.74-.27-.23-.44-.46-.5-.72-.11-.33.14-.76.64-1.22z"/>
    <path fill="#CDCCCB" fill-rule="nonzero" d="M123.36 262.15h12.46V200.9h-12.46z"/>
    <path fill-rule="nonzero" d="M133.87 201.05V262h1.8v-60.95h-1.8zm-.31 60.95v-60.95h-1.17V262h1.17zm-1.47 0v-60.95h-8.58V262h8.58zm3.73.3h-12.61v-61.55h12.76v61.55h-.15z"/>
    <path fill="#AC1F23" fill-rule="nonzero" d="M148.67 223.83c-2.76-1.11-7.34-1.93-12.66-2.11-1.83 0-3.85.18-5.97.54-7.43 1.29-13.19 4.23-12.73 6.7v.19s-2.85-6.33-2.85-6.51c-.46-2.66 5.78-6.06 14.12-7.42 2.57-.46 5.14-.65 7.34-.56 5.32 0 9.89.63 12.75 1.74v7.43z"/>
    <path fill-rule="nonzero" d="M148.59 223.96c-1.39-.56-3.26-1.04-5.46-1.41-2.11-.35-4.53-.59-7.12-.68-.93.01-1.9.05-2.9.14-.98.09-2 .22-3.04.4l-.56.1c-3.55.66-6.69 1.7-8.88 2.87-2.14 1.15-3.37 2.41-3.18 3.54l.01.23c0 .08-.07.15-.15.15-.07 0-.13-.04-.14-.1-.17-.37-2.74-6.11-2.86-6.54v-.01c-.23-1.37 1.2-2.92 3.73-4.28 2.48-1.34 6.03-2.53 10.1-3.23l.43-.07c1.28-.23 2.56-.4 3.79-.49 1.25-.09 2.45-.12 3.56-.07 2.65 0 5.13.16 7.3.45 2.18.3 4.06.74 5.5 1.3.06.03.1.08.1.14v7.43c0 .08-.07.15-.15.15l-.08-.02zm-5.41-1.71c2.12.36 3.94.82 5.33 1.36v-7.1c-1.4-.54-3.22-.96-5.33-1.25-2.15-.29-4.61-.45-7.26-.45-1.11-.05-2.3-.02-3.54.07-1.22.09-2.49.25-3.75.48l-.44.07c-4.04.7-7.56 1.88-10.01 3.2-2.41 1.3-3.78 2.74-3.57 3.97v.04c0 .13 1.82 4.18 2.54 5.79.16-1.11 1.39-2.27 3.34-3.31 2.22-1.19 5.38-2.24 8.96-2.9l.57-.11c1.04-.18 2.07-.31 3.07-.4a33.1 33.1 0 0 1 2.92-.14c2.62.09 5.05.33 7.17.68z"/>
    <path fill="#AC1F23" fill-rule="nonzero" d="M123.36 231.53c-3.49-.27-5.88-1.19-6.15-2.66-.19-1.19.92-2.47 3.03-3.58 1.01.09 2.01.19 3.12.19v6.05z"/>
    <path fill-rule="nonzero" d="M123.35 231.68c-1.8-.14-3.31-.45-4.4-.93-1.07-.46-1.74-1.09-1.88-1.86-.11-.64.13-1.29.67-1.93.53-.63 1.36-1.24 2.43-1.81l.04-.02.09.01c.99.09 1.97.19 3.06.19h.15v6.36l-.16-.01zm-4.28-1.2c1.02.44 2.45.74 4.14.88v-5.73c-1.03-.01-1.98-.1-2.94-.19-1.02.54-1.8 1.12-2.3 1.71-.48.57-.69 1.15-.61 1.69.12.66.73 1.22 1.71 1.64z"/>
    <path fill="#AC1F23" fill-rule="nonzero" d="M135.92 226.85c2.2.37 3.75.83 4.59 1.56l.08.09c.38.83-1.55 2.47-4.67 4.4v-6.05z"/>
    <path fill-rule="nonzero" d="M135.94 226.71c1.11.18 2.05.39 2.83.64.79.26 1.41.57 1.84.94l.12.15c.21.46-.16 1.11-.97 1.87-.82.78-2.14 1.71-3.76 2.72l-.23.15v-6.5l.17.03zm2.74.93c-.72-.24-1.59-.43-2.61-.61v5.6c1.5-.94 2.71-1.81 3.49-2.54.69-.66 1.03-1.18.9-1.51l-.06-.07c-.4-.34-.98-.63-1.72-.87z"/>
    <path fill="#AC1F23" fill-rule="nonzero" d="M115.57 243.36c-.37-1.02 3.02-2.93 7.79-4.68 2.2-.82 3.94-1.56 6.24-2.56 6.59-2.95 11.54-6.34 10.91-7.52l-.1-.1c.37.27.92 6.34.92 6.34.54 1.09-3.86 4.38-10.01 7.33-1.91.92-6.05 2.47-8.06 3.12-3.48 1.19-6.96 3.48-6.6 4.31l-1.09-6.24z"/>
    <path fill-rule="nonzero" d="M115.42 243.39c-.18-.57.56-1.34 1.94-2.16 1.41-.85 3.5-1.79 5.95-2.69 1.08-.4 2.07-.79 3.07-1.21l3.16-1.35c1.49-.66 2.89-1.35 4.17-2.03 2.15-1.15 3.93-2.28 5.12-3.23 1.03-.82 1.61-1.49 1.59-1.9l-.07-.17-.04-.04c-.06-.06-.06-.16 0-.21.06-.06.15-.06.21 0 .06.05.1.09.14.16.05.11.06.23.04.35.36 1.48.74 5.49.78 5.89.26.6-.65 1.7-2.37 2.99-1.69 1.27-4.17 2.77-7.07 4.2l-.65.31c-.89.43-2.25.99-3.65 1.53-1.63.64-3.34 1.25-4.43 1.6-.59.2-1.18.43-1.75.69-1.37.6-2.63 1.32-3.52 1.97-.75.55-1.23 1.04-1.26 1.34l.03.14c.01.07-.03.14-.09.17-.08.02-.17-.01-.2-.09-.4-1.09-.85-4.86-1.1-6.26zm2.09-1.91c-1.25.76-1.94 1.4-1.8 1.82l.99 5.64c.23-.33.63-.7 1.16-1.09.91-.66 2.19-1.4 3.58-2.01.58-.26 1.18-.49 1.77-.69 1.08-.35 2.78-.96 4.42-1.6 1.4-.54 2.75-1.1 3.63-1.52l.65-.31c2.88-1.42 5.34-2.91 7.02-4.17 1.61-1.21 2.48-2.19 2.27-2.64l-.02-.06c0-.02-.34-3.83-.64-5.49-.25.46-.77 1-1.52 1.6-1.21.96-3.01 2.1-5.17 3.25-1.28.68-2.69 1.38-4.18 2.04l-3.17 1.36c-.97.4-1.96.79-3.07 1.21l-.02.01c-2.43.89-4.51 1.82-5.9 2.65z"/>
    <path fill="#C8B32F" fill-rule="nonzero" d="m121.62 218.6.55-.19c.44-.17.9.1 1.19.65.17.37.09.83-.37 1.19-.19.1-.38.19-.55.27l-.82-1.92zm19.62-1.47c.09-.27.27-.46.36-.63-.19-.19-.73-.46-1.38-.46-1.37-.19-2.2.46-2.29 1.28-.18 1.74 2.58 1.55 2.39 2.74-.1.46-.55.75-1.11.65-.63-.09-1.09-.36-1.19-.92h-.17c-.1.27-.19.56-.38.92.38.27.92.36 1.47.46 1.38.17 2.47-.36 2.57-1.38.19-1.64-2.57-1.74-2.47-2.75 0-.37.36-.64 1.09-.64.55.1.82.37 1.01.73h.1zm-7.06 3.77c.64-1.74 1.37-3.4 2.2-5.15-.19 0-.27.1-.37.1h-.46c-.36 1.28-.92 2.47-1.47 3.67-.63-1.2-1.38-2.29-1.84-3.48-.27 0-.54.09-.82.09h-.82c1.01 1.56 1.93 3.2 2.85 4.77.08 0 .27-.09.36-.09.1 0 .18.09.37.09zm-6.78-4.23c-.19.1-.46.1-.65.19-.19 0-.46.1-.65.1l1.11 4.84 3.39-.63c0-.1-.1-.19-.1-.29v-.26c-.54.19-1.19.36-2.01.55l-1.09-4.5zm-4.86 4.23c1.55-.55 2.56-1.2 2.01-2.39-.27-.73-1.1-.92-2.3-.46l-2.11.73 1.84 4.69c.19-.1.37-.19.65-.29.17-.09.46-.17.63-.17l-.72-2.11zM235.77 196.04h17.14v-4.48h-17.14z"/>
    <path fill-rule="nonzero" d="M235.92 195.89h16.84v-4.18h-16.84v4.18zm16.99.3h-17.3v-4.78h17.46v4.78h-.16z"/>
    <path fill="#C8B32F" fill-rule="nonzero" d="M251.08 199.06c-.1-.08-.18-.08-.27-.08h-12.84c-.08 0-.27 0-.37.1.46-.19.73-.56.73-1.02 0-.46-.36-.91-.82-1.01.09 0 .28.1.38.1h12.82c.1 0 .29 0 .37-.1h-.1c-.44.19-.72.55-.72 1.01.09.46.36.83.82 1z"/>
    <path fill-rule="nonzero" d="M250.98 198.85c.06.01.12.04.19.09.05.04.07.11.05.18-.03.07-.12.11-.19.08l-.15-.06c-3.58-.19-9.51-.22-13.07 0l-.15.08c-.06.02-.12.01-.16-.04-.06-.05-.06-.15 0-.21.05-.06.13-.09.2-.11.13-.08.24-.17.32-.28.1-.15.16-.32.16-.52 0-.19-.08-.39-.21-.55a.92.92 0 0 0-.49-.31c-.08-.02-.14-.1-.12-.18.01-.07.08-.12.15-.12.07 0 .15.03.24.06l.14.04h12.87c.15-.08.16-.1.32-.1l.09.03c.07.06.08.15.02.22-.08.1-.23.13-.34.14-.12.08-.21.16-.28.26-.1.14-.16.31-.16.5.04.21.12.39.25.54.08.1.18.19.3.25l.02.01zm-12.78-.02h12.27l-.04-.05c-.16-.19-.27-.42-.32-.67l-.01-.05c0-.25.08-.49.22-.68l.07-.08h-12.21l.03.02c.17.21.27.48.27.74s-.07.5-.21.69l-.07.08z"/>
    <path fill="#C8B32F" fill-rule="nonzero" d="M237.97 198.98h12.84c.46 0 .82.27.82.64 0 .36-.36.65-.82.65h-12.84c-.46 0-.83-.29-.83-.65 0-.37.37-.64.83-.64z"/>
    <path fill-rule="nonzero" d="M237.97 198.83h12.84c.26 0 .5.08.68.22.18.14.29.34.29.57 0 .23-.11.43-.29.57-.18.14-.42.23-.68.23h-12.84c-.27 0-.51-.09-.68-.23a.725.725 0 0 1-.3-.57c0-.23.12-.43.3-.57.17-.14.41-.22.68-.22zm12.84.3h-12.84c-.2 0-.38.06-.5.16a.4.4 0 0 0-.18.33c0 .13.07.25.18.34.13.1.3.15.5.15h12.84c.19 0 .37-.05.49-.15.11-.09.18-.21.18-.34 0-.14-.07-.25-.17-.33-.13-.1-.3-.16-.5-.16z"/>
    <path fill="#C8B32F" fill-rule="nonzero" d="M237.97 196.04h12.84c.46 0 .82.28.82.55 0 .29-.36.56-.82.56h-12.84c-.46 0-.83-.29-.83-.56 0-.27.37-.55.83-.55z"/>
    <path fill-rule="nonzero" d="M237.97 195.89h12.84c.25 0 .48.07.65.19.2.13.32.32.32.51 0 .2-.12.39-.31.52-.17.11-.41.19-.66.19h-12.84c-.26 0-.49-.08-.66-.19-.19-.14-.32-.33-.32-.52s.13-.38.32-.51c.17-.12.4-.19.66-.19zm12.84.3h-12.84c-.2 0-.37.05-.49.14-.11.07-.19.17-.19.26s.08.19.19.27c.12.08.29.14.49.14h12.84c.19 0 .37-.06.49-.14.11-.08.18-.17.18-.27 0-.09-.07-.19-.19-.26a.803.803 0 0 0-.48-.14z"/>
    <path fill="#265EAC" fill-rule="nonzero" d="M232.38 271.69c1.18 0 2.2-.27 3.02-.64.74-.36 1.84-.65 2.93-.65 1.2 0 2.2.29 3.04.65.73.37 1.82.64 3.03.64 1.18 0 2.2-.27 3.02-.73.73-.37 1.84-.65 2.93-.65 1.19 0 2.2.28 2.93.65.74.36 1.84.63 3.02.63v1.84c-1.18 0-2.28-.27-3.02-.63-.73-.37-1.82-.65-2.93-.65-1.09 0-2.11.28-2.93.65-.73.36-1.84.63-3.02.63-1.21 0-2.21-.27-3.03-.63-.74-.37-1.84-.65-3.04-.65-1.19 0-2.19.28-2.93.65-.73.36-1.84.63-3.02.63v-1.74z"/>
    <path fill-rule="nonzero" d="M232.38 271.54c.54 0 1.05-.06 1.52-.16.53-.11 1.01-.27 1.44-.46.4-.2.89-.37 1.44-.49.49-.11 1.02-.18 1.55-.18.61 0 1.17.08 1.69.2.51.11.98.28 1.41.47.38.18.85.34 1.37.45.49.11 1.03.17 1.6.17.56 0 1.09-.07 1.57-.18.51-.12.97-.31 1.38-.53.39-.2.89-.37 1.43-.49.5-.11 1.04-.18 1.57-.18.56 0 1.09.06 1.57.17.55.12 1.03.3 1.43.49.37.19.84.35 1.37.46.49.1 1.03.16 1.58.16h.16v2.14h-.16c-.57 0-1.13-.06-1.64-.17a6.32 6.32 0 0 1-1.45-.48c-.37-.19-.84-.35-1.36-.47-.47-.1-.98-.16-1.5-.16-.5 0-.98.06-1.43.16-.52.11-1.01.28-1.44.47-.39.2-.88.37-1.43.48a8.036 8.036 0 0 1-3.34-.01c-.51-.12-.98-.28-1.4-.47-.38-.19-.87-.35-1.4-.47-.49-.1-1.02-.16-1.58-.16a6.9 6.9 0 0 0-1.5.16c-.51.11-.98.28-1.36.47-.39.19-.89.36-1.44.48-.51.11-1.07.17-1.65.17h-.16v-2.04h.16zm1.58.14c-.45.09-.92.15-1.43.16v1.44c.5-.01.99-.07 1.44-.16.53-.12 1-.28 1.36-.46.41-.2.89-.37 1.44-.5a7.786 7.786 0 0 1 3.2.01c.56.12 1.06.29 1.47.49.4.18.84.33 1.33.44.49.11 1.03.18 1.63.18.56 0 1.1-.06 1.59-.16.53-.12 1-.28 1.36-.46.45-.2.96-.37 1.51-.5a7.162 7.162 0 0 1 3.06.01c.54.12 1.04.3 1.43.49.37.18.84.34 1.37.46.44.09.93.15 1.43.16v-1.54c-.52-.01-1.03-.07-1.49-.17-.55-.11-1.05-.28-1.45-.48-.38-.19-.83-.35-1.35-.47-.46-.1-.96-.16-1.51-.16-.52 0-1.03.06-1.5.17-.52.11-.99.28-1.36.46-.43.24-.92.43-1.44.56-.51.12-1.07.19-1.65.19-.59 0-1.15-.07-1.66-.17-.55-.12-1.05-.29-1.44-.48-.41-.18-.86-.34-1.35-.45a7.237 7.237 0 0 0-3.11-.02c-.52.12-.99.28-1.37.47-.45.2-.96.37-1.51.49z"/>
    <path fill="#CDCCCB" fill-rule="nonzero" d="M232.38 273.52c1.18 0 2.2-.27 3.02-.65.74-.36 1.84-.63 2.93-.63 1.2 0 2.2.27 3.04.63.73.38 1.82.65 3.03.65 1.18 0 2.2-.27 3.02-.65.73-.36 1.84-.63 2.93-.63 1.19 0 2.2.27 2.93.63.74.38 1.84.65 3.02.65v1.84c-1.18 0-2.28-.28-3.02-.65-.73-.36-1.82-.63-2.93-.63-1.09 0-2.11.27-2.93.63-.73.37-1.84.75-3.02.75-1.21 0-2.21-.29-3.03-.65-.84-.37-1.84-.64-3.04-.64-1.19 0-2.19.27-2.93.64-.73.36-1.84.65-3.02.65v-1.94z"/>
    <path fill="none" stroke="#000" stroke-width=".02" stroke-miterlimit="22.926" d="M232.38 273.52c1.18 0 2.2-.27 3.02-.65.74-.36 1.84-.63 2.93-.63 1.2 0 2.2.27 3.04.63.73.38 1.82.65 3.03.65 1.18 0 2.2-.27 3.02-.65.73-.36 1.84-.63 2.93-.63 1.19 0 2.2.27 2.93.63.74.38 1.84.65 3.02.65v1.84c-1.18 0-2.28-.28-3.02-.65-.73-.36-1.82-.63-2.93-.63-1.09 0-2.11.27-2.93.63-.73.37-1.84.75-3.02.75-1.21 0-2.21-.29-3.03-.65-.84-.37-1.84-.64-3.04-.64-1.19 0-2.19.27-2.93.64-.73.36-1.84.65-3.02.65v-1.94z"/>
    <path fill="#265EAC" fill-rule="nonzero" d="M232.38 275.36c1.18 0 2.2-.28 3.02-.65.74-.36 1.84-.63 2.93-.63 1.2 0 2.2.27 3.04.63.73.37 1.82.65 3.03.65 1.18 0 2.2-.28 3.02-.74.73-.37 1.84-.64 2.93-.64 1.19 0 2.2.27 2.93.64.74.38 1.84.65 3.02.65v1.83c-1.18 0-2.28-.28-3.02-.65-.73-.36-1.82-.63-2.93-.63-1.09 0-2.11.18-2.93.63-.73.37-1.84.65-3.02.65-1.21 0-2.21-.28-3.03-.65-.74-.36-1.84-.63-3.04-.63-1.19 0-2.19.27-2.93.63-.73.37-1.84.65-3.02.65v-1.74z"/>
    <path fill-rule="nonzero" d="M232.38 275.21c.58 0 1.12-.07 1.61-.18.49-.12.95-.28 1.35-.46.4-.19.89-.36 1.42-.47.5-.11 1.04-.17 1.57-.17.61 0 1.17.07 1.69.18.52.12.99.28 1.41.46.38.19.85.36 1.39.47a7.153 7.153 0 0 0 3.14-.01c.51-.13.97-.32 1.39-.54.39-.2.88-.37 1.42-.49.5-.1 1.04-.17 1.58-.17.57 0 1.11.07 1.59.17.54.11 1.01.29 1.41.48.37.19.84.36 1.36.47.49.1 1.03.17 1.59.17h.16v2.13h-.16c-.57 0-1.12-.06-1.62-.17-.56-.12-1.07-.29-1.47-.49-.36-.18-.83-.34-1.34-.45-.48-.11-1-.17-1.52-.17-.54 0-1.06.05-1.54.14-.47.1-.92.26-1.32.48-.39.2-.9.37-1.46.49-.5.11-1.06.17-1.63.17-.61 0-1.18-.07-1.69-.19-.52-.12-.98-.28-1.4-.47-.38-.18-.85-.35-1.39-.46-.48-.1-1.02-.16-1.59-.16-.55 0-1.06.06-1.51.16-.52.11-.97.27-1.35.46-.39.2-.9.37-1.46.49-.5.11-1.06.17-1.63.17h-.16v-2.04h.16zm1.68.11c-.48.11-.99.18-1.53.19v1.44c.5-.01.98-.07 1.42-.16.53-.12 1.01-.29 1.38-.47.41-.2.89-.37 1.42-.49.48-.1 1.01-.16 1.58-.16.59 0 1.15.06 1.65.17.55.11 1.05.28 1.45.48.41.17.85.34 1.34.45.49.11 1.03.18 1.63.18.55 0 1.09-.06 1.57-.16.54-.12 1.01-.29 1.38-.47.43-.23.9-.4 1.41-.5.5-.1 1.04-.15 1.59-.15.54 0 1.09.06 1.58.17.54.12 1.03.28 1.42.48.38.18.86.35 1.39.47.44.09.92.15 1.41.16v-1.53c-.52-.01-1.03-.08-1.5-.18-.55-.11-1.04-.29-1.44-.49-.37-.18-.82-.35-1.34-.46-.46-.1-.97-.16-1.52-.16-.52 0-1.04.07-1.52.17-.51.11-.98.27-1.34.45-.44.24-.93.44-1.46.57-.5.12-1.05.19-1.63.19-.58 0-1.14-.06-1.64-.17-.56-.12-1.06-.3-1.46-.49-.41-.18-.86-.34-1.34-.44-.5-.11-1.04-.18-1.63-.18-.51 0-1.03.06-1.51.16-.51.11-.98.28-1.35.46-.43.18-.9.35-1.41.47z"/>
    <path fill="#CDCCCB" fill-rule="nonzero" d="M232.38 279.11c1.18 0 2.2-.26 3.02-.63.74-.38 1.84-.65 2.93-.65 1.2 0 2.2.27 3.04.65.73.37 1.82.63 3.03.63 1.18 0 2.2-.26 3.02-.72.73-.37 1.84-.65 2.93-.65 1.19 0 2.2.19 2.93.65.74.46 1.84.63 3.02.63v-1.82c-1.18 0-2.28-.29-3.02-.75-.73-.36-1.82-.63-2.93-.63-1.09 0-2.11.18-2.93.63-.73.37-1.84.65-3.02.65-1.21 0-2.21-.28-3.03-.65-.74-.36-1.84-.63-3.04-.63-1.19 0-2.19.27-2.93.63-.73.37-1.84.65-3.02.65v2.01z"/>
    <path fill-rule="nonzero" d="M232.53 278.96c.49-.01.94-.07 1.37-.15.53-.11 1.01-.28 1.44-.47.39-.2.88-.37 1.41-.48.5-.11 1.04-.18 1.58-.18.61 0 1.17.07 1.69.19.51.11.99.28 1.41.47.38.19.85.35 1.37.46.49.1 1.03.16 1.6.16.56 0 1.09-.06 1.57-.18.51-.12.97-.3 1.38-.53.39-.19.89-.37 1.43-.49.5-.11 1.04-.17 1.57-.17.6 0 1.16.04 1.67.15.51.11.96.28 1.34.52.34.2.75.35 1.22.45.48.1 1.01.15 1.57.16v-1.52a6.9 6.9 0 0 1-1.54-.2c-.53-.13-1.01-.32-1.4-.56-.36-.18-.83-.34-1.34-.45-.48-.11-1-.17-1.52-.17-.54 0-1.06.05-1.54.14-.47.1-.92.26-1.32.48-.39.2-.9.37-1.46.49-.5.11-1.06.17-1.63.17-.61 0-1.18-.07-1.69-.19-.52-.12-.98-.28-1.4-.47-.38-.18-.85-.35-1.39-.46-.48-.1-1.02-.16-1.59-.16-.55 0-1.06.06-1.51.16-.52.11-.97.27-1.35.46-.39.2-.9.37-1.46.49-.46.1-.96.16-1.48.17v1.71zm1.43.14c-.49.1-1.02.17-1.58.17h-.16v-2.32h.16c.55 0 1.09-.06 1.57-.16.53-.12 1.01-.29 1.38-.47.41-.2.89-.37 1.42-.49.48-.1 1.01-.16 1.58-.16.59 0 1.15.06 1.65.17.55.11 1.05.28 1.45.48.41.17.85.34 1.34.45.49.11 1.03.18 1.63.18.55 0 1.09-.06 1.57-.16.54-.12 1.01-.29 1.38-.47.43-.23.9-.4 1.41-.5.5-.1 1.04-.15 1.59-.15.54 0 1.09.06 1.58.17.54.12 1.03.28 1.42.48l.01.01c.36.22.82.4 1.32.53.5.12 1.05.19 1.62.19h.16v2.12h-.16c-.63 0-1.24-.05-1.78-.16-.5-.11-.95-.27-1.32-.5-.35-.22-.77-.37-1.24-.47-.48-.1-1.03-.15-1.61-.15-.52 0-1.03.06-1.5.17-.52.11-.99.28-1.36.46-.43.24-.92.43-1.44.56-.51.12-1.07.19-1.65.19-.59 0-1.15-.07-1.66-.17-.55-.12-1.05-.29-1.44-.48-.4-.19-.85-.35-1.35-.46-.49-.11-1.03-.18-1.62-.18-.52 0-1.04.07-1.52.17-.51.11-.97.28-1.34.46-.45.21-.96.38-1.51.49z"/>
    <path fill="#265EAC" fill-rule="nonzero" d="M232.38 280.95c1.18 0 2.2-.27 3.02-.65.74-.36 1.84-.63 2.93-.63 1.2 0 2.2.27 3.04.63.73.38 1.82.65 3.03.65 1.18 0 2.2-.27 3.02-.65.73-.36 1.84-.63 2.93-.63 1.19 0 2.2.27 2.93.63.74.38 1.84.65 3.02.65v-1.84c-1.18 0-2.28-.26-3.02-.72-.73-.46-1.82-.65-2.93-.65-1.09 0-2.11.28-2.93.65-.73.36-1.84.72-3.02.72-1.21 0-2.21-.26-3.03-.63-.74-.38-1.84-.65-3.04-.65-1.19 0-2.19.27-2.93.65-.73.46-1.84.63-3.02.63v1.84z"/>
    <path fill-rule="nonzero" d="M232.53 280.8c.49-.01.95-.07 1.38-.16.52-.11 1-.28 1.43-.47.4-.2.89-.37 1.42-.48.5-.11 1.03-.17 1.57-.17.61 0 1.17.07 1.69.18.51.12.98.28 1.41.46.38.2.84.36 1.36.47.49.11 1.04.17 1.61.17.55 0 1.06-.06 1.53-.16.52-.11 1-.28 1.43-.47.38-.2.87-.36 1.41-.48.5-.11 1.04-.17 1.58-.17.57 0 1.11.06 1.59.16.54.12 1.01.29 1.41.49.37.19.84.35 1.36.46.45.1.94.16 1.44.17v-1.54c-.54-.01-1.07-.07-1.55-.19-.53-.13-1.01-.32-1.4-.56-.33-.21-.75-.36-1.2-.46-.51-.11-1.08-.16-1.65-.16-.5 0-.98.06-1.43.16-.52.11-1.01.28-1.44.47-.41.21-.93.41-1.52.55-.48.12-1.02.2-1.56.2-.61 0-1.18-.07-1.69-.19-.52-.11-.98-.28-1.4-.46-.38-.2-.85-.36-1.38-.47a8.01 8.01 0 0 0-1.6-.17c-.56 0-1.07.06-1.53.16-.5.11-.95.28-1.33.47-.36.23-.8.39-1.3.49-.5.11-1.06.16-1.64.16v1.54zm1.44.14c-.49.1-1.02.16-1.59.16h-.16v-2.14h.16c.61 0 1.2-.05 1.73-.15.47-.1.88-.25 1.21-.46h.01c.4-.21.88-.38 1.41-.5.48-.11 1.02-.17 1.59-.17.59 0 1.15.07 1.67.17.54.12 1.03.29 1.43.49.41.18.85.34 1.34.45.49.11 1.03.17 1.63.17.52 0 1.03-.07 1.49-.18.57-.14 1.07-.33 1.46-.53.45-.2.96-.37 1.51-.5.47-.1.97-.16 1.49-.16.59 0 1.18.05 1.71.17.49.11.94.27 1.3.5.36.22.81.4 1.31.52s1.06.18 1.63.18h.16v2.14h-.16c-.58 0-1.14-.06-1.65-.17a6.22 6.22 0 0 1-1.44-.49c-.37-.19-.82-.35-1.33-.46-.46-.1-.98-.16-1.53-.16-.52 0-1.04.06-1.52.17-.51.11-.98.27-1.34.45-.45.2-.95.38-1.5.5-.49.1-1.02.16-1.59.16-.59 0-1.16-.06-1.67-.17-.55-.12-1.04-.29-1.43-.49-.41-.18-.86-.34-1.35-.44-.49-.11-1.03-.18-1.62-.18-.52 0-1.03.06-1.51.16-.51.12-.98.28-1.35.46-.45.2-.95.38-1.5.5z"/>
    <path fill="#C8B32F" fill-rule="nonzero" d="M251.08 264.09c0 .17-.1.27-.1.46 0 1.09 1.02 2.01 2.2 2.01h-17.59c1.19 0 2.2-.92 2.2-2.01 0-.19 0-.29-.09-.46H251.08z"/>
    <path fill-rule="nonzero" d="M251.23 264.09c0 .1-.03.18-.05.26-.02.06-.04.12-.04.2 0 .5.23.96.6 1.3.37.34.89.56 1.44.56v.3h-17.59v-.3c.56 0 1.07-.22 1.45-.56.37-.34.6-.8.6-1.3 0-.17 0-.25-.08-.39-.03-.07-.01-.17.06-.21l.08-.01c4.46-.02 8.92-.01 13.38-.01.08 0 .15.07.15.16zm-.34.17.01-.02h-12.98c.02.09.02.18.02.31 0 .58-.27 1.13-.7 1.52-.14.13-.3.24-.47.34h15.24c-.18-.1-.33-.21-.47-.34-.43-.39-.71-.94-.71-1.52 0-.12.03-.21.06-.29z"/>
    <path fill="#C8B32F" fill-rule="nonzero" d="M237.97 262.88h12.84c.46 0 .82.29.82.56 0 .36-.36.65-.82.65h-12.84c-.46 0-.83-.29-.83-.65 0-.27.37-.56.83-.56z"/>
    <path fill-rule="nonzero" d="M237.97 262.73h12.84c.25 0 .48.08.65.19.2.14.32.33.32.52 0 .23-.11.43-.29.58-.18.13-.42.22-.68.22h-12.84c-.27 0-.51-.09-.68-.22-.18-.15-.3-.35-.3-.58 0-.19.13-.38.32-.52.17-.11.4-.19.66-.19zm12.84.3h-12.84c-.2 0-.37.06-.49.14-.11.08-.19.18-.19.27 0 .13.07.25.18.34.13.1.3.15.5.15h12.84c.19 0 .37-.05.49-.15.11-.09.18-.21.18-.34 0-.09-.07-.19-.19-.27a.879.879 0 0 0-.48-.14z"/>
    <path fill="#C8B32F" fill-rule="nonzero" d="M235.59 271.05h17.52v-4.49h-17.52z"/>
    <path fill-rule="nonzero" d="M235.74 270.9h17.21v-4.19h-17.21v4.19zm17.37.31h-17.67v-4.8h17.82v4.8h-.15z"/>
    <path fill="#AC1F23" fill-rule="nonzero" d="M254.56 247.03c1.74 1 2.95 2.01 2.76 2.57-.1.46-.65.82-1.47 1.37-1.29.92-2.02 2.38-1.37 3.12-1.01-.84-1.66-2.02-1.66-3.48-.08-1.47.55-2.76 1.74-3.58z"/>
    <path fill-rule="nonzero" d="M254.64 246.9c.91.52 1.68 1.05 2.18 1.52.5.47.75.89.64 1.22-.11.5-.66.87-1.48 1.42l-.4.32c-.49.42-.86.92-1.05 1.39-.18.45-.19.87.02 1.16l.93 1.19-1.09-.91c-.54-.45-.98-.99-1.28-1.62-.28-.59-.44-1.25-.44-1.98-.04-.76.1-1.47.41-2.09.31-.64.78-1.19 1.4-1.61l.07-.06.09.05zm1.98 1.74c-.47-.44-1.19-.93-2.05-1.43-.54.39-.95.88-1.22 1.44-.28.58-.42 1.24-.38 1.95 0 .69.15 1.31.41 1.86.18.39.43.74.72 1.06-.02-.27.03-.56.15-.86.21-.51.61-1.05 1.13-1.51l.43-.34c.77-.51 1.28-.85 1.36-1.24v-.02c.07-.2-.14-.53-.55-.91z"/>
    <path fill="#CDCCCB" fill-rule="nonzero" d="M238.16 262.15h12.46V200.9h-12.46z"/>
    <path fill-rule="nonzero" d="M248.76 201.05v60.91h-.3v-60.91h-1.08v60.91h-.3v-60.91h-8.77V262h12.16v-60.95h-1.71zm1.86 61.25H238v-61.55h12.77v61.55h-.15z"/>
    <path fill="#AC1F23" fill-rule="nonzero" d="M225.31 223.83c2.76-1.11 7.33-1.93 12.66-2.11 1.83 0 3.84.18 5.97.54 7.5 1.29 13.19 4.23 12.73 6.7v.19s2.85-6.33 2.85-6.51c.46-2.66-5.78-6.06-14.13-7.42-2.56-.46-5.13-.65-7.33-.56-5.32 0-9.9.63-12.75 1.74v7.43z"/>
    <path fill-rule="nonzero" d="M225.46 223.61c1.4-.54 3.22-1 5.34-1.36 2.12-.35 4.55-.59 7.16-.68.93 0 1.91.05 2.93.14.99.09 2.02.22 3.07.4l.66.12c3.59.67 6.73 1.72 8.92 2.9 1.92 1.04 3.13 2.19 3.29 3.3.72-1.61 2.54-5.66 2.54-5.79v-.03c.2-1.25-1.17-2.68-3.58-3.98-2.45-1.32-5.98-2.5-10.02-3.2l-.42-.07a35.48 35.48 0 0 0-3.76-.48c-1.23-.09-2.43-.12-3.52-.07-2.66 0-5.12.16-7.27.45-2.11.29-3.93.71-5.34 1.25v7.1zm5.39-1.06c-2.2.37-4.07.85-5.47 1.41l-.07.02c-.08 0-.15-.07-.15-.15v-7.43c0-.06.04-.11.1-.14 1.44-.56 3.31-1 5.5-1.3 2.17-.29 4.64-.45 7.3-.45 1.11-.05 2.31-.02 3.55.07 1.23.09 2.51.26 3.79.49l.42.06c4.07.71 7.63 1.9 10.12 3.24 2.52 1.36 3.95 2.9 3.73 4.27v.03c-.13.44-2.69 6.16-2.86 6.53-.02.06-.07.1-.14.1-.08 0-.15-.07-.15-.15v-.23c.2-1.13-1.01-2.39-3.13-3.53-2.16-1.16-5.26-2.2-8.82-2.86l-.66-.12c-1.05-.18-2.07-.31-3.04-.4a32.54 32.54 0 0 0-2.9-.13c-2.59.08-5.01.32-7.12.67z"/>
    <path fill="#AC1F23" fill-rule="nonzero" d="M250.62 231.53c3.48-.27 5.87-1.19 6.14-2.66.19-1.19-.91-2.47-3.02-3.58-1 .09-2.01.19-3.12.19v6.05z"/>
    <path fill-rule="nonzero" d="M250.77 231.36c1.69-.14 3.12-.44 4.14-.88.98-.42 1.58-.98 1.71-1.64.08-.54-.13-1.12-.61-1.69-.5-.59-1.28-1.17-2.3-1.71l-1.48.13c-.48.03-.96.05-1.46.06v5.73zm4.26-.61c-1.09.48-2.6.79-4.4.93l-.16.01v-6.36h.15c.56 0 1.09-.03 1.59-.06l1.56-.14.04.02c1.07.57 1.9 1.18 2.43 1.81.53.64.77 1.29.67 1.93-.14.77-.81 1.4-1.88 1.86z"/>
    <path fill="#AC1F23" fill-rule="nonzero" d="M238.06 226.85c-2.2.37-3.75.83-4.58 1.56l-.09.09c-.36.83 1.55 2.47 4.67 4.4v-6.05z"/>
    <path fill-rule="nonzero" d="M237.91 227.03c-1.02.18-1.89.37-2.61.61-.74.24-1.32.53-1.71.87l-.07.08c-.12.33.22.85.91 1.51.78.72 1.98 1.59 3.48 2.53v-5.6zm-2.7.32c.77-.25 1.72-.46 2.83-.64l.17-.03v6.5l-.23-.15c-1.62-1-2.93-1.94-3.75-2.71-.81-.77-1.18-1.42-.98-1.88.02-.05.09-.1.13-.14.43-.38 1.04-.69 1.83-.95z"/>
    <path fill="#AC1F23" fill-rule="nonzero" d="M258.41 243.36c.38-1.02-3.02-2.93-7.79-4.68-2.2-.82-4.02-1.56-6.22-2.56-6.61-2.95-11.57-6.34-10.92-7.52l.08-.1c-.36.27-.9 6.34-.9 6.34-.65 1.09 3.85 4.38 9.99 7.33 1.92.92 6.05 2.47 8.06 3.12 3.49 1.19 6.97 3.48 6.61 4.31l1.09-6.24z"/>
    <path fill-rule="nonzero" d="M258.27 243.3c.15-.41-.53-1.05-1.77-1.8-1.3-.78-3.21-1.65-5.45-2.49l-.48-.18c-1.11-.42-2.13-.82-3.12-1.22-1-.42-2.01-.85-3.12-1.35a66.19 66.19 0 0 1-4.76-2.35c-2.01-1.1-3.66-2.17-4.76-3.08-.67-.55-1.14-1.05-1.37-1.47-.3 1.65-.63 5.47-.63 5.49l-.03.09c-.16.33.27.95 1.16 1.73.92.83 2.34 1.82 4.08 2.86 1.39.82 2.98 1.68 4.7 2.5.88.42 2.23.98 3.63 1.52 1.64.64 3.34 1.25 4.41 1.6.6.2 1.2.43 1.77.69 1.4.61 2.68 1.35 3.59 2.01.53.39.93.76 1.16 1.09l.99-5.64zm-1.61-2.05c1.36.82 2.09 1.57 1.9 2.14-.25 1.4-.71 5.17-1.1 6.26-.03.08-.12.11-.2.09-.06-.03-.1-.1-.09-.17l.02-.14c-.02-.3-.5-.79-1.25-1.34-.89-.65-2.15-1.37-3.53-1.97-.56-.26-1.16-.49-1.74-.69-1.09-.35-2.8-.96-4.43-1.6-1.4-.54-2.76-1.1-3.65-1.53-1.73-.83-3.33-1.68-4.72-2.51-1.76-1.04-3.19-2.05-4.14-2.89-.98-.88-1.45-1.62-1.22-2.09v-.02c.04-.39.42-4.47.77-5.91-.01-.11.01-.22.05-.31.03-.07.07-.1.12-.16.05-.07.15-.08.21-.02.06.05.07.14.02.21l-.09.14c-.11.38.41 1.04 1.41 1.86 1.08.89 2.72 1.95 4.71 3.04 1.43.78 3.04 1.58 4.75 2.34 1.09.5 2.1.93 3.1 1.35 1.02.41 2.03.81 3.11 1.21l.49.19c2.26.84 4.19 1.73 5.5 2.52z"/>
    <path fill="#C8B32F" fill-rule="nonzero" d="m252.74 221.8 1.65-.99-.19 1.83-1.46-.84zm-5.15-4.38c.56.08 1.21.17 1.21.82 0 .17 0 .27-.1.36-.19.73-.74.92-1.64.73l.53-1.91zm-2.37 4.11c.17 0 .46.1.63.1.19 0 .46.09.65.17l.56-2.28h.08c.09.27.28.73.37.92l.73 1.74c.27.08.56.08.83.18.27.09.55.19.82.19l-.27-.56c-.36-.73-.74-1.55-1.11-2.29.83 0 1.57-.27 1.67-1 .08-.46-.1-.84-.56-1.2-.36-.27-1.01-.37-1.38-.46l-1.83-.37-1.19 4.86zm-1.93-4.86c.55.1 1.11.19 1.64.29v-.29c0-.09 0-.17.1-.27l-4.67-.36v.27c0 .09 0 .19-.1.27H242l-.36 4.4h.65c.27 0 .46.09.63.09l.37-4.4zm-5.4-.82h-.65c-.19 0-.46 0-.65-.1l-.08 4.96 3.48.1c0-.1-.09-.19-.09-.29 0-.1 0-.17.09-.27-.65 0-1.28.1-2.12.1l.02-4.5zm-4.79 5.32c.46-1.84 1.11-3.48 1.67-5.32-.1 0-.29.09-.37.09h-.38c-.27 1.29-.63 2.57-1.09 3.76-.73-1.1-1.55-2.2-2.2-3.3-.27.1-.56.1-.82.18-.29 0-.56.09-.83.09 1.09 1.48 2.2 3.03 3.2 4.59.1 0 .29-.09.38-.09h.44zm21 1.84c0 .54-.08.99-.27 1.64.27.1.46.19.73.37.19.09.46.28.65.36l.46-5.59c-.09 0-.19-.09-.28-.17-.08-.1-.18-.1-.27-.19l-4.96 3.12c.1.09.29.09.36.17.1.1.29.19.38.19.46-.36.83-.65 1.37-1.01l1.83 1.11z"/>
    <path fill="#CDCCCB" fill-rule="nonzero" d="M187.18 282.14c-10.09 0-20-2.47-28.43-6.6-6.14-3.03-10.27-9.25-10.27-16.32v-25.49h77.2v25.59c0 7.05-4.12 13.19-10.27 16.31-8.34 4.04-18.14 6.51-28.23 6.51z"/>
    <path fill="none" stroke="#000" stroke-width=".03" stroke-miterlimit="22.926" d="M187.18 282.14c-10.09 0-20-2.47-28.43-6.6-6.14-3.03-10.27-9.25-10.27-16.32v-25.49h77.2v25.59c0 7.05-4.12 13.19-10.27 16.31-8.34 4.04-18.14 6.51-28.23 6.51z"/>
    <path fill="#AC1F23" fill-rule="nonzero" d="M186.99 259.32c0 10.07-8.62 18.34-19.26 18.34-10.64 0-19.35-8.17-19.35-18.34v-25.69h38.61v25.69z"/>
    <path fill="#C8B32F" fill-rule="nonzero" d="M182.78 270.59c1.91-1.64 3.65-5.51 4.3-9.81l.1-28.07h-4.5l.1 37.88z"/>
    <path fill="none" stroke="#000" stroke-width=".03" stroke-miterlimit="22.926" d="M182.78 270.59c1.91-1.64 3.65-5.51 4.3-9.81l.1-28.07h-4.5l.1 37.88z"/>
    <path fill="#CDCCCB" fill-rule="nonzero" d="M186.99 233.63h38.69v-42.82h-38.69z"/>
    <path fill="#C8B32F" fill-rule="nonzero" d="M156.82 274.35c1.19.65 2.85 1.74 4.67 2.1l-.08-43.81h-4.49v41.71h-.1z"/>
    <path fill="none" stroke="#000" stroke-width=".03" stroke-miterlimit="22.926" d="M156.82 274.35c1.19.65 2.85 1.74 4.67 2.1l-.08-43.81h-4.49v41.71h-.1z"/>
    <path fill="#C8B32F" fill-rule="nonzero" d="M148.38 258.94c.1 5.42 2.3 9.45 4.4 12.02V232.9h-4.3l-.1 26.04z"/>
    <path fill="none" stroke="#000" stroke-width=".03" stroke-linejoin="round" stroke-miterlimit="22.926" d="M148.38 258.94c.1 5.42 2.3 9.45 4.4 12.02V232.9h-4.3l-.1 26.04z"/>
    <path fill="#C6B52F" fill-rule="nonzero" d="M165.44 277.47c1.74.19 3.12.19 4.49 0v-44.76h-4.49v44.76z"/>
    <path fill="none" stroke="#000" stroke-width=".03" stroke-miterlimit="22.926" d="M165.44 277.47c1.74.19 3.12.19 4.49 0v-44.76h-4.49v44.76z"/>
    <path fill="#C8B32F" fill-rule="nonzero" d="M173.97 276.55c1.74-.36 3.75-1.47 4.67-2.01v-41.83h-4.49l-.18 43.84z"/>
    <path fill="none" stroke="#000" stroke-width=".03" stroke-miterlimit="22.926" d="M173.97 276.55c1.74-.36 3.75-1.47 4.67-2.01v-41.83h-4.49l-.18 43.84z"/>
    <path fill="#AC1F23" fill-rule="nonzero" d="M148.38 233.63h38.61v-42.82h-38.61zM225.68 233.63v25.69c0 10.07-8.71 18.34-19.34 18.34-10.74 0-19.35-8.17-19.35-18.34v-25.69h38.69z"/>
    <path fill="#008F6F" fill-rule="nonzero" d="M204.14 253.35c0-1.09.92-2.01 2.11-2.01 1.18 0 2.1.92 2.1 2.01 0 1.11-.92 2.03-2.1 2.03-1.19 0-2.11-.84-2.11-2.03z"/>
    <path fill="#DA4546" fill-rule="nonzero" d="M206.71 201.36v-.46l.09-.27s-1.28.1-1.93-.09c-.64-.18-1.19-.46-1.84-.92-.63-.56-.82-.83-1.28-.92-1-.18-1.82.28-1.82.28s.82.27 1.36 1c.55.75 1.2 1.11 1.47 1.2.46.1 2.01 0 2.47.1.56-.02 1.48.08 1.48.08zm6.77 26.78s-.27.65.19 1.01.83.46.83.46-.37-.65-.27-.92c.09-.36.46-.55.46-.55s-.56-.19-.65-.19c0-.08-.56.19-.56.19zm-2.37-.73s-.46.46-.29.9c.19.38.46.84.46.84s0-.65.19-.84c.27-.27.83-.27.83-.27s-.46-.36-.56-.36c-.08 0-.63-.27-.63-.27zm-.27-2.3s-.65-.19-1.02.1c-.36.17-.64 1.09-.64 1.09s.55-.46 1.01-.46c.36.1.73.19.73.19s.09-.36 0-.65c0-.09-.08-.27-.08-.27zm-9.55-.92s-.37.46-.1.92c.29.37.84.56.84.56s-.19-.29-.09-.65c.09-.27.54-.65.54-.65l-1.19-.18zm-1.55-2.29s-.73-.1-1.11.28c-.37.37-.37 1-.37 1s.46-.46.83-.46c.38 0 .84.29.84.29s-.1-.37-.1-.65c0-.18-.09-.46-.09-.46zm1.64-2.2s-.36-.46-.91-.46c-.54 0-1.1.55-1.1.55s.64-.09.83.19c.17.27.36.54.36.54s.27-.17.46-.27c.09-.19.36-.55.36-.55zm-5.68-5.4s0 .63.28.99c.27.37.83.46.83.46s-.19-.36-.19-.63c-.1-.29.27-.55.27-.55s-.27-.27-.54-.27h-.65zm-1.09-2.13s-.46-.07-.92.29c-.37.36-.46 1.01-.46 1.01s.36-.38.73-.28c.27 0 .65.19.65.19s.07-.37.07-.46c.1-.36-.07-.75-.07-.75zm.63-2.28s-.36-.36-.92-.28c-.54.09-.92.74-.92.74s.46-.09.75-.09c.27.09.46.36.46.36s.27-.19.36-.36c.17 0 .27-.37.27-.37zm-1.92-7.79s-.55.08-.91.46c-.37.37-.29 1.09-.29 1.09s.36-.46.74-.46c.37 0 .91.1.91.1s-.18-.46-.18-.65c0-.17-.27-.54-.27-.54zm.83-2.39s-.37-.55-1.02-.55c-.72.09-1.18.65-1.18.65s.72 0 .91.09c.27.18.37.64.37.64s.46-.27.54-.46c.19-.1.38-.37.38-.37zm1.74-.82s.36.27.63.27h.65s.1-.46.1-.73c-.19-.92-1.02-1.09-1.02-1.09s.27.53.1.82c-.1.46-.46.73-.46.73z"/>
    <path fill="#EB71A9" fill-rule="nonzero" d="M212.49 199.62s0 .55.09 1.11c.08.53-.19.91-.09 1.18.09.27.09.56.17.73.09.19.19.75.19.75s-.29-.2-.55-.46c-.27-.19-.46-.38-.46-.38s.09.55.09.84c0 .26.19.63.37.9.19.28.64.65.82 1.01.09.46.09 1.19.09 1.19s-.36-.54-.65-.63c-.26-.1-.99-.46-.99-.46s.63.63.63 1.18c0 .56-.27 1.19-.27 1.19s-.28-.54-.65-.82c-.36-.37-.82-.73-.82-.73s.36.92.36 1.47c0 .64-.08 1.92-.08 1.92s-.28-.46-.65-.73c-.27-.27-.64-.46-.82-.65-.09-.17.36.46.46.92.09.36.27 1.84 1.46 3.58.74 1.01 1.83 2.93 4.22 2.29 2.38-.64 1.46-3.84 1-5.32-.46-1.47-.73-3.12-.73-3.75 0-.55.46-2.3.37-2.58-.1-.27-.18-1.55.09-2.57.29-.99.56-1.45.73-1.82.19-.46.29-.65.38-1.01.08-.37.08-1.11.08-1.11s.46.82.56 1.11c.09.27.09 1.19.09 1.19s.1-.83.73-1.29c.65-.45 1.47-.82 1.66-1.09.18-.28.27-.38.27-.38s-.09 1.47-.46 2.03c-.27.36-1.38 1.65-1.38 1.65s.56-.18.92-.18h.65s-.46.37-1.11 1.28c-.63.91-.36 1-.82 1.75-.46.72-.82.72-1.38 1.18-.82.64-.36 3.3-.27 3.76.1.36 1.55 3.67 1.55 4.5 0 .82.2 2.56-1.18 3.67-.92.73-2.39.73-2.66.9-.37.19-1.02.84-1.02 2.2 0 1.38.46 1.57.92 1.93.37.37.92.19 1.01.46.1.27.18.46.37.56.19.17.27.36.19.63-.1.29-.75.92-.92 1.47-.19.46-.65 1.75-.65 1.92 0 .19-.09.74.19 1.01 0 0 .73.83.18 1.02-.27.09-.54-.19-.73-.19-.46.09-.65.36-.73.36-.29-.08-.29-.17-.29-.54 0-.36 0-.55-.09-.55-.18 0-.27.19-.27.36 0 .19 0 .73-.19.73-.17 0-.46-.36-.63-.46-.19-.08-.65-.17-.65-.36 0-.18.28-.64.55-.73.27-.1.56-.19.37-.36-.18-.19-.37-.19-.54 0-.19.17-.65 0-.56-.19 0-.27.1-.54.1-.64 0-.09-.38-.36.08-.65.46-.27.65.19 1.11.1.45-.1.63-.27.82-.46.19-.27.19-.82-.19-1.19-.27-.36-.63-.36-.73-.65-.09-.17-.27-.73-.27-.73s.1.92 0 1.1c-.09.09 0 .65 0 .65s-.28-.37-.55-.65c-.27-.27-.46-1-.46-1v1c0 .28.36.55.19.65-.1.09-.65-.56-.84-.65-.08-.1-.54-.46-.73-.83-.17-.36-.36-.92-.36-1.09-.1-.19-.19-1.01-.1-1.2.19-.27.37-.83.37-.83l-1.1.02c-.55 0-1.01-.19-1.19.17-.19.37-.09 1.19.18 2.2.28 1.02.46 1.57.38 1.75-.1.19-.46.64-.56.64-.19.08-.55.08-.72 0-.19-.09-.46-.18-1.02-.18h-1.01c-.18-.1-.63-.27-.92-.27-.17.09-.63.27-.46.53.19.46-.17.56-.36.56-.18 0-.37-.1-.73-.18-.29-.09-.73 0-.65-.38.09-.26.19-.36.28-.53.1-.29.18-.37 0-.37-.19 0-.36 0-.55.08-.19.1-.36.38-.55.29-.18-.1-.37-.37-.37-.83 0-.46-.55-.92 0-.92.46 0 1.11.37 1.19.1.09-.29.09-.38-.18-.56-.28-.19-.55-.36-.28-.55.38-.27.46-.27.55-.46.1-.09.29-.63.56-.46.46.19 0 .56.46 1.11.46.54.73.73 1.55.63.82-.09 1.01-.17 1.01-.46 0-.17-.09-.63-.09-.82 0-.19.09-.73.09-.73s-.36.18-.46.46c-.19 0-.46.37-.46.37s-.09-.46-.09-.83c0-.19.09-.65.09-.65 0-.17-.18-.72-.18-.72s-.08.55-.18.72c-.09.19-.09.83-.09.83s-.56-.46-.37-1.19c.1-.55-.09-1.38.1-1.55.17-.29.54-1.29 1.55-1.29h2.1c.37 0 1.57-.28 1.57-.28s-2.29-1.19-2.75-1.55c-.56-.37-1.38-1.28-1.56-1.67-.28-.36-.45-1.18-.45-1.18s-.38 0-.84.19c-.37.17-.73.54-.91.73-.19.19-.55.82-.55.82s.09-.73.09-.92c0-.17-.09-.63-.09-.63s-.29.99-.73 1.38c-.55.36-1.11.9-1.11.9s.1-.54.1-.64c0-.09.09-.72.09-.72s-.36.53-.92.63c-.55.09-1.37.09-1.47.46-.09.36.19.82 0 1.11-.09.27-.46.36-.46.36s-.27-.28-.63-.28c-.29 0-.56.09-.56.09s-.27-.27-.19-.55c.1-.18.56-.54.38-.64-.09-.09-.46 0-.65.18-.19.19-.63.19-.63-.18 0-.36.18-.55 0-.82-.09-.29 0-.36.18-.46.19-.09.82 0 .91-.19.1-.17-.19-.36-.65-.46-.46-.09-.63-.36-.46-.63l.46-.46c.1-.19.19-.56.56-.37.36.18.36.64.73.73.46.18 1.47-.09 1.66-.19.17-.09.92-.63 1.19-.73.27-.09 1.19-.82 1.19-.82s-.54-.36-.83-.65c-.17-.17-.63-.73-.82-.82-.19-.1-1.19-.46-1.47-.46-.37 0-1.29-.37-1.29-.37s.46-.19.65-.26c.18-.1.46-.46.64-.37h.19s-.92 0-1.1-.09c-.19-.1-.74-.46-1.01-.46-.19 0-.65.09-.65.09s.55-.38 1.11-.46c.46-.09.82-.09.82-.09s-.73-.19-.92-.46c-.19-.29-.36-.65-.46-.83-.09-.19-.19-.46-.45-.46-.27 0-.64.27-.92.27-.27 0-.46-.19-.46-.55 0-.36 0-.17-.1-.46-.08-.17-.46-.63-.08-.73.37-.09 1 .1 1.1-.09.09-.1-.37-.46-.65-.64-.27-.19-.73-.36-.45-.55.27-.19.45-.27.64-.46s.27-.73.55-.55c.27.19.63 1.01.92.91.17-.09.27-.63.17-.91-.09-.27 0-.64.19-.64.18 0 .37.37.73.37.37 0 .83-.1.83.17 0 .29-.27.56-.46.84-.27.27-.37.82-.18 1.19.18.36.54.92.92 1.09.37.19 1 .37 1.36.65.38.27 1.38 1.01 1.67 1.09.26.1.63.29.63.29s.36-.19.82-.19c.46 0 1.67.09 2.12-.1.45-.17 1-.46.83-.92-.19-.36-1.11-.72-1.02-.99.1-.29.46-.37 1.02-.37.54 0 1.36.08 1.55-.74.19-.83.19-1.28-.63-1.46-.84-.19-1.48-.19-1.57-.82-.18-.65-.27-.75-.1-.92.19-.19.46-.29 1.11-.29.64-.09 1.29-.09 1.46-.17.19-.19.28-.55.46-.74.28-.18 1.2-.27 1.2-.27s1.09.55 2.11 1.28c1.01.84 1.84 1.84 1.84 1.84z"/>
    <path fill="#FFD791" fill-rule="nonzero" d="M189 270.77c1.57.46 2.39 1.66 2.39 3.12 0 1.84-1.74 3.21-4.04 3.21-2.28 0-4.11-1.37-4.11-3.21 0-1.38.72-2.93 2.37-3.03 0 0-.09-.17-.17-.36-.19-.19-.46-.55-.46-.55s.63-.1.92 0c.36.19.53.36.53.36s.2-.36.37-.54c.19-.28.55-.38.55-.38s.37.29.46.46c.1.19.19.46.19.46s.37-.27.64-.36c.28-.1.64-.18.64-.18s-.09.37-.19.54c-.09.09-.09.46-.09.46z"/>
    <path fill="none" stroke="#000" stroke-width=".03" stroke-miterlimit="22.926" d="M189 270.77c1.57.46 2.39 1.66 2.39 3.12 0 1.84-1.74 3.21-4.04 3.21-2.28 0-4.11-1.37-4.11-3.21 0-1.38.72-2.93 2.37-3.03 0 0-.09-.17-.17-.36-.19-.19-.46-.55-.46-.55s.63-.1.92 0c.36.19.53.36.53.36s.2-.36.37-.54c.19-.28.55-.38.55-.38s.37.29.46.46c.1.19.19.46.19.46s.37-.27.64-.36c.28-.1.64-.18.64-.18s-.09.37-.19.54c-.09.09-.09.46-.09.46z"/>
    <path fill="#008F6F" fill-rule="nonzero" d="M186.99 279.11s-3.03-2.01-4.4-2.37c-1.75-.38-3.58-.1-4.41-.1 0 0 1.02.73 1.38 1.1.46.46 1.84 1.28 2.66 1.47 2.47.63 4.77-.1 4.77-.1z"/>
    <path fill="none" stroke="#000" stroke-width=".03" stroke-miterlimit="22.926" d="M186.99 279.11s-3.03-2.01-4.4-2.37c-1.75-.38-3.58-.1-4.41-.1 0 0 1.02.73 1.38 1.1.46.46 1.84 1.28 2.66 1.47 2.47.63 4.77-.1 4.77-.1z"/>
    <path fill="#008F6F" fill-rule="nonzero" d="M187.91 279.3s1.93-2.02 4.04-2.29c2.37-.37 4.02.19 4.94.46 0 0-.73.36-1.19.65-.46.27-1.46 1.18-3.22 1.18-1.64 0-3.48-.19-3.84-.09-.27 0-.73.09-.73.09z"/>
    <path fill="none" stroke="#000" stroke-width=".03" stroke-miterlimit="22.926" d="M187.91 279.3s1.93-2.02 4.04-2.29c2.37-.37 4.02.19 4.94.46 0 0-.73.36-1.19.65-.46.27-1.46 1.18-3.22 1.18-1.64 0-3.48-.19-3.84-.09-.27 0-.73.09-.73.09z"/>
    <path fill="#AC1F23" fill-rule="nonzero" d="M187.26 276.74c-.73-.74-1.28-1.74-1.28-2.85 0-1.09.45-2.11 1.28-2.84.74.73 1.2 1.75 1.2 2.84.08 1.11-.36 2.11-1.2 2.85z"/>
    <path fill="none" stroke="#000" stroke-width=".03" stroke-miterlimit="22.926" d="M187.26 276.74c-.73-.74-1.28-1.74-1.28-2.85 0-1.09.45-2.11 1.28-2.84.74.73 1.2 1.75 1.2 2.84.08 1.11-.36 2.11-1.2 2.85z"/>
    <path fill="#008F6F" fill-rule="nonzero" d="M186.53 280.86s.46-1.19.55-2.21c0-.82-.09-1.64-.09-1.64h.65s.27.92.27 1.64c0 .75-.1 1.84-.1 1.84s-.46.1-.55.1c-.27.17-.73.27-.73.27z"/>
    <path fill="none" stroke="#000" stroke-width=".03" stroke-miterlimit="22.926" d="M186.53 280.86s.46-1.19.55-2.21c0-.82-.09-1.64-.09-1.64h.65s.27.92.27 1.64c0 .75-.1 1.84-.1 1.84s-.46.1-.55.1c-.27.17-.73.27-.73.27z"/>
    <path fill="#C8B32F" fill-rule="nonzero" d="M160.95 204.75h3.03H158.29v5.68h1.38v11.37h-2.85v5.88h14.59-7.34 14.57-7.23 7.23v-5.88h-2.83v-11.37h1.46v-5.68H171.41h3.19v-1.92h1.29v-2.85h-1.29v.75h-.72v-.75h-1.29v.75h-.91v-.75h-1.29v2.85h1.29v1.92h-2.21 1.94-2.4v-6.23h1.38v-2.85h-1.38v.75h-.72v-.75H167v.75h-.55v-.75h-1.38v2.85h1.38v6.23h-.36 3.38-5.49 2.11-2.3v-1.92h1.28v-2.85h-1.28v.75h-.73v-.75h-1.38v.75h-.73v-.75h-1.28v2.85h1.28z"/>
    <path fill-rule="nonzero" d="M171.77 202.66h3.94v-.84h-5.13v-.35h5.13v-1.31h-.93v.74h-1.08v-.74h-.93v.74h-1.27v-.74h-.93v2.5h1.2zm-8.15 5.49.18-3.23h-3.02l.33 3.23h2.51zm.52-3.23-.06 1.12h1.89l-.05-1.12h-1.78zm-.08 1.47-.05 1.03h.89v-1.03h-.84zm-.07 1.38-.03.53v.6h2.31v-.4h-.18l-.03-.73h-2.07zm-.38.73h-2.48v.4h2.48v-.4zm-2.83-.17-.06-.56h-2.25v1.13h2.31v-.57zm-.09-.91-.11-1.03h-.73v1.03h.84zm-.14-1.38-.12-1.12h-1.96v1.12h2.08zm8.4 2.11.33-3.23h-3.01l.15 3.23h2.53zm.68-3.23-.11 1.12h1.84l-.11-1.12h-1.62zm-.15 1.47-.1 1.03h1.03v-1.03h-.93zm-.14 1.38-.06.56v.57h2.32v-.58l-.06-.55h-2.2zm-.41.73h-2.31v.4h2.31v-.4zm-2.89-1.08-.05-1.03h-.74v1.03h.79zm5.46 0-.1-1.03h-.64v1.03h.74zm3.64-2.5-.12 1.12h2.07v-1.12h-1.95zm-.16 1.47-.11 1.03h.84v-1.03h-.73zm-.14 1.38-.06.54v.59h2.31v-1.13h-2.25zm-.41.73h-2.48v.4h2.48v-.4zm-2.83-3.58.33 3.23h2.52l.34-3.23h-3.19zm2.83-1.91h-2.58v.2h2.58v-.2zm-7.81-4.57h2.22v-.09h1.38v-.86h-4.97v.86h1.37v.09zm2.22.35h-2.22v.1h2.22v-.1zm-7.89 3.87h3.95v-.84h-5.05v.84h1.1zm2.66.35h-2.48v.2h2.48v-.2zm3.95-2.65v-1.12h-.94v1.12h.94zm.35-1.12v1.12h.93v-1.12h-.93zm-.35 3.97v-1.12h-.94v1.12h.94zm.35-1.12v1.12h.93v-1.12h-.93zm-.35 8.17v-1.01h-2.31v1.01h2.31zm.35-1.01v1.01h2.5v-1.01h-2.5zm-.35 6.69v-1.01h-2.49v-.35h1.2v-1.12H165a1.8 1.8 0 0 0-.12-.35h.02v-1.03h-5.05v1.03h1.59c-.06.11-.1.23-.14.35h-1.45v1.12h1.37v.35h-1.37v1.01h1.37v.35h-1.37v1.13h1.37v.35h-1.37v1.21h2.39v-1.02h.35v1.02h2.31v-1.02h.17v-.54h1.2v-1.13h-1.2v-.35h2.49zm.35-1.01v1.01h2.67v.35h-1.3v1.13h1.3v.54h.18v1.02h2.31v-1.02h.35v1.02h2.21v-1.21h-1.2v-.35h1.2v-1.13h-1.2v-.35h1.2v-1.01h-1.2v-.35h1.2v-1.12h-1.27c-.03-.12-.07-.24-.13-.35h1.4v-1.03h-4.87v1.03h.02c-.06.11-.1.22-.13.35h-1.37v1.12h1.3v.35h-2.67zm-.35-1.82v-1.03h-2.31v1.03h2.31zm.35-1.03v1.03h2.5v-1.03h-2.5zm-.35 6.9v-1.21h-2.31v1.21h2.31zm.35-1.21v1.21h2.5v-1.21h-2.5zm5.51-14.21v1.01h1.01v-1.01h-1.01zm-.35 1.01v-1.01h-1.22v1.01h1.22zm2.99 1.82v1.03h1.03v-1.03h-1.03zm-5.3 2.86v1.01h2.31v-1.01h-2.31zm2.66 0v1.01h2.29v-1.01h-2.29zm2.64 0v1.01h1.03v-1.01h-1.03zm-1.28 1.36v1.12h.85v-1.12h-.85zm-.35 1.12v-1.12h-2.48v1.12h2.48zm-2.83 0v-1.12h-2.32v1.12h2.32zm-2.67 0v-1.12h-2.31v1.12h2.31zm0 2.85v-1.12h-2.31v1.12h2.31zm0 2.84v-1.13h-2.31v1.13h2.31zm.35 1.91v1.11h2.32v-1.11h-2.32zm-.35 1.11v-1.11h-2.31v1.11h2.31zm3.02-1.11v1.11h2.48v-1.11h-2.48zm2.83 0v1.11h.85v-1.11h-.85zm-4.37 2.3v-.84h-1.14c-.39-.18-1.09-.35-1.54-.35-.35 0-1.05.17-1.35.35h-1.13v.84h.07c-.17.11-.32.22-.44.35h-.44l-.1-.08a.7.7 0 0 0-.1.08h-.28v.35c-.2.37-.3.86-.33 1.31h-1.04v1.03h1.48v.35h-2.94v1.11h2.94v.35h-1.48v1.02h1.48v.18h7.34v-.18h1.66v-1.02h-1.66v-.35h3.02v-1.11h-3.02v-.35h1.66v-1.03h-1.14c-.03-.45-.13-.94-.33-1.31v-.35h-.28a.7.7 0 0 0-.1-.08l-.1.08h-.55c-.14-.13-.29-.24-.47-.35h.31zm.35-.84v.84h2.31v-.84h-2.31zm1.19 1.19v1.31h2.48v-1.31h-2.48zm5.14 1.31v-1.31h-2.31v1.31h2.31zm.35-1.31v1.31h1.03v-1.31h-1.03zm-4.02-1.19v.84h2.21v-.84h-2.21zm0 2.85v1.03h2.29v-1.03h-2.29zm0 2.84v1.02h2.29v-1.02h-2.29zm1.36-1.46v1.11h2.31v-1.11h-2.31zm2.66 0v1.11h1.03v-1.11h-1.03zm-1.38-1.38v1.03h2.41v-1.03h-2.41zm0 2.84v1.02h2.41v-1.02h-2.41zm-13.47-22.92v1.01h1.02v-1.01h-1.02zm-.35 1.01v-1.01h-1.11v1.01h1.11zm-2.74 2.85v-1.03h-1.03v1.03h1.03zm5.4 2.84v-1.01h-2.31v1.01h2.31zm-2.66 0v-1.01h-2.39v1.01h2.39zm-2.74 0v-1.01h-1.03v1.01h1.03zm1.63.35v1.12h2.48v-1.12h-2.48zm-.35 1.12v-1.12h-.93v1.12h.93zm3.18-1.12v1.12h2.31v-1.12h-2.31zm2.31 9.83v-1.11h-2.31v1.11h2.31zm-2.66 0v-1.11h-2.48v1.11h2.48zm-2.83 0v-1.11h-.93v1.11h.93zm4.12 1.19v-.84h-2.31v.84h2.31zm-1.29 1.66v-1.31h-2.48v1.31h2.48zm-5.49 0v-1.31H157v1.31h1.12zm.35-1.31v1.31h2.31v-1.31h-2.31zm3.77-.35v-.84h-2.39v.84h2.39zm0 3.04v-1.03h-2.39v1.03h2.39zm0 2.83v-1.02h-2.39v1.02h2.39zm-1.46-1.37v-1.11h-2.31v1.11h2.31zm-2.66 0v-1.11H157v1.11h1.12zm1.38-1.46v-1.03H157v1.03h2.5zm0 2.83v-1.02H157v1.02h2.5zm.35-26.03h5.05v-1.31h-.94v.74h-1.07v-.74h-1.03v.74h-1.08v-.74h-.93v1.31zm5.4-4.32h4.97v-1.3h-1.03v.74h-1.08v-.74h-.93v.74h-.91v-.74h-1.02v1.3zm5.32 0h.01v.34h-.01v1.21h-1.38v5.87h2.31v-1.56h-1.28v-3.2h1.63v.74h.57v-.74h1.63v.74h.38v-.74h1.63v3.2h-1.28v1.56H177.44v6.04h-1.46v11.02h2.84v6.22h-22.17v-6.22h2.85v-11.02h-1.38v-6.04H160.78v-1.56h-1.28v-3.2h1.63v.74h.38v-.74h1.73v.74h.37v-.74h1.64v3.2h-1.29v1.56h2.31v-5.87h-1.37v-3.2h1.72v.74h.21v-.74h1.63v.74h.38v-.74h1.73v1.65zm-1.73 3.56h-2.22v1.03h2.22v-1.03zm0 2.85h-2.22v1.01h2.22v-1.01z"/>
    <path fill-rule="nonzero" d="M171.23 227.5v-3.42l.35-.04v3.81h-7.68v-3.82l.35.04v3.43h6.98zm-6.68-5.43c.12-.14.25-.27.41-.39.36-.3.86-.54 1.51-.67l.19.32c-.66.11-1.14.34-1.49.62-.13.11-.25.22-.35.34l-.27-.22zm4.6-1c.55.13.99.35 1.32.6.19.14.34.3.47.45l-.26.23c-.12-.14-.26-.28-.42-.4-.32-.24-.74-.44-1.3-.57l.19-.31z"/>
    <path fill-rule="nonzero" d="m165.34 224.37-1.9-.21V224c0-.42.06-.94.21-1.39.13-.36.32-.68.6-.86l.11-.07 1.84 1.53-.22.12c-.07.04-.2.21-.3.4-.08.16-.15.33-.15.46v.2l-.19-.02zm-1.55-.52 1.41.15c.04-.14.1-.29.17-.43.08-.15.17-.28.26-.38l-1.29-1.07c-.16.15-.28.36-.36.61-.12.35-.18.76-.19 1.12zM170.35 224l1.42-.15c-.02-.36-.07-.77-.19-1.12-.09-.25-.2-.46-.36-.61l-1.29 1.07c.09.1.18.24.26.38.07.14.13.29.16.43zm1.61.18-1.93.21v-.2c0-.13-.07-.3-.15-.46-.1-.2-.23-.36-.3-.4l-.22-.12 1.84-1.53.11.07c.28.18.47.5.6.87.15.44.21.96.21 1.38v.16l-.16.02zM168.28 222.18l.77-1.3c-.16-.06-.35-.11-.55-.16-.27-.06-.55-.1-.77-.1-.18 0-.45.04-.71.11-.15.04-.3.09-.42.14l.77 1.31h.91zm1.17-1.29-.97 1.64h-1.31l-1.05-1.78.14-.09c.15-.1.41-.2.67-.27.29-.07.6-.12.8-.12.24 0 .55.04.85.11.3.07.6.17.8.27l.16.08-.09.16zM164.9 217.78v-3.77c0-.51-.18-.96-.48-1.26-.3-.3-.73-.48-1.26-.48s-.96.19-1.25.49c-.33.32-.51.78-.51 1.25v3.77h3.5zm.35-3.77v4.12h-4.2v-4.12c0-.56.22-1.11.61-1.5.36-.36.87-.59 1.5-.59.62 0 1.14.22 1.5.58.38.38.59.91.59 1.51zM170.41 217.96v-3.95c0-.6.21-1.13.58-1.51.36-.36.88-.58 1.51-.58.65 0 1.16.23 1.51.57.4.4.6.95.6 1.52v4.12h-4.2v-.17zm.35-3.95v3.77h3.5v-3.77c0-.48-.17-.95-.5-1.27-.28-.29-.71-.47-1.26-.47-.53 0-.96.18-1.26.48-.31.3-.48.75-.48 1.26z"/>
    <path fill="#3A57A7" fill-rule="nonzero" d="M170.2 227.68v-3.12c0-.56-.36-2.11-2.47-2.11-1.91 0-2.29 1.55-2.29 2.11v3.21h4.76v-.09zM164.71 217.59v-3.39c0-.92-.56-1.74-1.55-1.74-1.02 0-1.57.92-1.57 1.74v3.39h3.12zM170.95 217.59v-3.39c0-.92.55-1.74 1.55-1.74 1.01 0 1.65.92 1.65 1.74v3.39h-3.2z"/>
    <path fill="#C8B32F" fill-rule="nonzero" d="M211.81 196.36c-.03.06-.09.17-.15.23-.19.19-.46.19-.65.1-.09-.1-.09-.19-.09-.27-.1.08-.27.08-.37 0-.19-.1-.27-.38-.09-.65l.09-.1.19.29.46-.29v-.36l-.54-.07.45-.3-.19-.45h-.46l-.07.62-.3-.43-.36.17-.1.46.61.08a.3.3 0 0 0 .1.09l-.06.02-.09.17c-.19.19-.46.29-.56.1-.09-.1-.09-.19-.09-.19l-.09.09c-.35.08-.48-.44-.53-.76l.16.13.29-.29-.1-.45-.48.07c-.01-.04-.03-.07-.06-.07.05-.08.24-.4-.01-.64-.27-.27-.64-.09-.64-.09s.18.19.27.36c.1.19.19.56.19.56-.09.09-.09.19.1.26.02 0 .05 0 .08-.02l.11.09-.02.03s.1.55.1 1.01c-.1.46-.19.92-.19.92.55.18 1.47.64 2.29 1.28.83.64 1.55 1.38 1.84 1.84 0 0 .46-.28.92-.38.46-.17 1-.17 1-.17l.17-.18c.12.01.26.04.38.08.19 0 .36.19.36.19s.1-.36-.17-.65c-.29-.17-.65.19-.65.19-.04-.04-.08-.07-.12-.07l-.05-.39h-.46l-.19.37.41.27c-.33-.01-.68-.08-.68-.37 0-.09.08-.17.08-.17s-.18 0-.18-.1c-.15-.07-.18-.25-.09-.42l.09.23.37-.09.19-.37-.38-.15v-.12h-.05l.43-.18v-.37l-.46-.17-.26.57-.2-.49-.37.09-.18.36-.01-.09h-.36c-.16-.07-.25-.28-.16-.5l.07.14.45-.18v-.36l-.45-.14.55-.24-.19-.46h-.46l-.14.53-.22-.44-.46.1-.1.46.53.13zm1.43 1.27c-.01.05.01.1.07.15l.02.02c-.16.06-.35.03-.48-.1-.08-.08-.09-.15-.09-.28l.48.21z"/>
    <path fill-rule="nonzero" d="M206.53 200.8c-.41.01-1.2.03-1.7-.12-.33-.09-.63-.21-.94-.36-.3-.15-.61-.35-.95-.58l-.38-.34c-.34-.32-.53-.49-.84-.55-.58-.1-1.1.02-1.41.13.3.15.75.44 1.1.91.22.29.45.53.67.71.3.24.57.38.72.44.21.04.71.04 1.2.04.5 0 1 0 1.25.05.36-.01.89.03 1.2.05l.01-.04c.03-.13.06-.24.07-.34zm7.85-1.53v-.01c-.36-.02-.71-.12-.71-.47l.02-.1a.182.182 0 0 1-.11-.1l-.05-.04a.373.373 0 0 1-.1-.23c-.01-.06.01-.13.03-.2l-.08-.18c-.02 0-.05-.01-.07-.03-.04.02-.09.02-.14.02-.14 0-.29-.05-.39-.16a.312.312 0 0 1-.11-.2l-.01-.08-.05-.02.03-.05c-.23.01-.2.04-.37-.05a.443.443 0 0 1-.17-.26.539.539 0 0 1 .01-.28l-.09-.16h-.04c-.07 0-.13-.03-.19-.08l-.05.07a.59.59 0 0 1-.36.18.63.63 0 0 1-.41-.06l-.03-.02a.377.377 0 0 1-.11-.19l-.09.01c-.09 0-.18-.03-.24-.08l-.03-.01a.52.52 0 0 1-.2-.3.638.638 0 0 1 .06-.4c.04-.07.04-.08.08-.12l-.05-.07h-.01l-.08.14c-.07.07-.16.13-.24.17-.07.04-.15.06-.22.06a.246.246 0 0 1-.21-.08l-.1-.13-.12.02c-.16 0-.29-.1-.37-.24l-.01-.02c0 .19 0 .33-.02.46.03.01.07.03.1.06.1.09.1.09 0 .19h-.14l-.06.28c.4.21 1.15.64 1.86 1.15l.27.27.07.05c.4.32.79.66 1.11.98.29.29.54.58.69.81.17-.1.52-.28.86-.35.22-.08.45-.12.64-.15zm.04-.26c.02-.04.06-.07.1-.1a.7.7 0 0 1 .1-.08l-.02-.2h-.31l-.12.22.25.16zm.41-.18.03.02c.13-.11.44-.31.7-.14l.02.01c.32.33.21.72.21.72v.25l-.18-.17c0-.01-.15-.16-.29-.16l-.03-.01c-.1-.04-.21-.06-.31-.07l-.17.17h-.04s-.53 0-.97.17h-.01c-.44.09-.87.36-.87.36l-.09.09-.07-.11a.94.94 0 0 0-.12-.18c.01.2.03.56.09.92.04.32-.02.58-.07.79-.03.16-.06.29-.03.37.05.15.08.29.1.42.02.12.04.23.07.3.1.21.2.8.2.81v.15h-.15s-.36-.21-.65-.5l-.16-.11.04.46c0 .09.04.21.08.33.07.17.17.34.26.48.07.11.19.24.31.36.2.21.41.44.52.68l.02.03c.09.48.1 1.22.1 1.22v.36l-.26-.25s-.48-.57-.59-.6l-.44-.19c.15.23.27.51.27.77 0 .59-.28 1.26-.28 1.26l-.1.19-.14-.15s-.27-.53-.64-.81l-.41-.39c.09.32.19.72.19 1.01 0 .63-.08 1.92-.08 1.93l-.02.33-.23-.23s-.25-.44-.63-.72l-.24-.19.11.31.04.2c.11.55.38 1.84 1.39 3.32l.2.28c.72 1.01 1.78 2.51 3.87 1.96 1.1-.3 1.44-1.21 1.45-2.21.01-1.04-.33-2.19-.56-2.92-.21-.68-.39-1.4-.51-2.04-.15-.76-.23-1.41-.23-1.76 0-.26.1-.78.2-1.28.11-.57.21-1.14.18-1.25-.06-.18-.12-.7-.09-1.31.01-.43.06-.91.18-1.34.24-.86.48-1.33.65-1.68l.19-.41c.12-.29.19-.46.27-.74.07-.35.07-1.08.07-1.08v-.64l.29.57s.06-.36.56 1.13c.03.1.05.26.07.44.12-.22.28-.44.52-.61.28-.19.58-.37.86-.53.36-.21.67-.39.76-.52.19-.3.29-.41.29-.41l.26-.25v.36c0 .01-.1 1.53-.48 2.11-.19.25-.73.89-1.08 1.3.16-.03.34-.06.49-.06h1.02l-.26.26s-.46.36-1.09 1.26c-.34.48-.41.72-.48.96-.06.21-.13.43-.34.77-.32.52-.6.69-.92.89-.15.09-.31.19-.49.34-.26.2-.38.66-.42 1.18-.06.96.14 2.14.2 2.43l.34.86c.46 1.16 1.22 3.05 1.22 3.67v.26c.02.92.05 2.48-1.25 3.53-.65.51-1.55.68-2.15.79-.26.04-.46.08-.52.12l-.01.01c-.2.09-.48.34-.68.79-.15.31-.26.73-.26 1.27 0 1.17.35 1.42.72 1.71l.15.11c.16.16.38.2.56.24.23.04.42.07.5.28.04.13.08.24.13.32.04.07.09.12.16.15l.03.03c.11.1.2.21.24.34.04.13.04.28-.01.44-.04.15-.19.34-.35.55-.21.29-.47.63-.57.93v.01c-.1.26-.3.77-.44 1.21-.11.32-.2.59-.2.65v.13c-.02.22-.04.6.14.77.01.01.64.74.36 1.11l.42.17h-.68c-.05.01-.09.02-.13.02-.07.05-.23.19-.29.42v.01c-.07.2.26.8.26.8l.11.22h-.24s-.43-.1-.92-.49c-.29-.23-.34-.56-.32-.81-.18-.06-.28-.12-.34-.25-.05-.11-.05-.24-.05-.44 0-.26.11-.4.06-.4-.03 0-.05.02-.07.04a.31.31 0 0 0-.05.17c0 .23 0 .88-.34.88-.14 0-.29-.12-.43-.24-.15.03-.34.08-.46.2-.15.14-.15.73-.15.73v.36l-.25-.25s-.3-.49-.49-.88l-.01-.01c-.21-.54.32-1.07.32-1.07l.11-.1.01.01c.04-.08.09-.17.15-.25.12-.15.27-.29.42-.34l.02-.01c.11-.04.23-.08.28-.11l-.03-.03c-.04-.04-.09-.07-.12-.07-.04 0-.09.02-.13.07l-.04.03c-.12.11-.29.14-.45.1l-.19-.07a.43.43 0 0 1-.15-.15.275.275 0 0 1-.02-.2v-.01l-.68-.18c-.41.01-.9.42-.9.42l-.65.65.41-.83s.23-.91.71-1.15c.49-.37 1.09-.12 1.09-.12h.06c.05-.05.12-.11.21-.16.32-.2.53-.1.75-.01.12.06.25.11.4.08.22-.04.36-.1.47-.17.11-.07.19-.15.27-.24.08-.11.11-.3.08-.49a.875.875 0 0 0-.26-.49l-.01-.02c-.12-.15-.26-.24-.38-.31-.14-.08-.27-.16-.35-.32v1.27l-.25-.26s-.29-.36-.56-.65a1.13 1.13 0 0 1-.2-.29v.19c0 .09.07.2.12.29l.05.08c.09.17.12.3-.05.4-.16.12-.42-.13-.67-.36-.13-.13-.26-.25-.32-.28-.05-.02-.12-.11-.16-.15-.18-.16-.48-.45-.63-.74-.1-.2-.2-.44-.27-.65-.06-.2-.11-.37-.11-.48-.06-.14-.11-.42-.13-.68-.02-.25-.01-.51.05-.62l.01-.02c.11-.16.22-.42.28-.58l-.89.01-.44-.03c-.3-.03-.53-.05-.61.12-.08.15-.1.41-.07.74.02.37.12.84.25 1.35l.1.33c.23.84.37 1.31.28 1.52-.06.12-.2.31-.33.46-.11.13-.22.23-.31.26-.11.05-.27.07-.43.07-.15 0-.31-.02-.42-.07-.09-.04-.19-.09-.34-.12-.14-.03-.34-.05-.61-.05-.16 0-.99.03-1.08-.02-.09-.05-.28-.13-.47-.18-.12-.04-.24-.07-.35-.07l-.25.13c-.08.06-.15.12-.11.17l.01.02c.04.12.07.21.07.3 0 .11-.04.2-.1.27-.05.07-.12.11-.2.15-.09.04-.2.05-.27.05-.09 0-.18-.02-.28-.05-.12.13-.27.29-.31.4-.09.38.11.61.11.61v.15h-.16s-.64-.21-.95-.62l-.01-.01c-.25-.43-.04-.86.06-1.03-.01-.05 0-.11.01-.19l.01-.02c.07-.19.14-.31.21-.42l.08-.13.05-.15c-.14 0-.27.01-.4.07l-.16.11c-.16.14-.32.28-.53.17a.64.64 0 0 1-.22-.19l.02.09-.38-.39s-.39-.24-.73-.24c-.3 0-.72.42-.72.42l-.26.25v-.36s0-.7.41-1.1c.41-.41 1.1-.35 1.2-.33.04-.11.15-.18.38-.18.2 0 .42.06.63.12.22.06.41.11.41.09.04-.12.06-.2.05-.24-.01-.04-.06-.09-.16-.15l-.01-.01c-.16-.1-.3-.2-.38-.31-.12-.17-.12-.33.1-.48l.11-.08-.29.16h-.15v-.15s-.18-.2-.34-.45c-.12-.19-.7-.13-.7-.13h-.36l.26-.25s.6-.6 1.2-.6c.62 0 1.02.5 1.02.5l.11.11c.11-.1.25-.14.41-.04.31.13.31.31.31.55 0 .16 0 .36.19.59.22.25.39.43.59.52.2.09.45.11.83.06.4-.04.64-.08.77-.14.08-.04.11-.09.11-.17l-.09-.82.04-.41c-.05.05-.09.12-.11.19l-.04.1h-.11c-.06 0-.35.32-.35.32l-.19.19-.06-.26s-.1-.48-.1-.86c0-.17.07-.55.09-.66l-.01-.09-.07.17c-.07.17-.07.76-.07.76v.36l-.26-.26s-.61-.5-.41-1.32c.04-.23.03-.51.02-.77-.02-.36-.03-.69.1-.84l.08-.13c.21-.42.63-1.22 1.6-1.22h2.1c.23 0 .77-.11 1.14-.19-.67-.35-2.06-1.09-2.42-1.37-.27-.18-.6-.49-.89-.8-.32-.34-.6-.7-.7-.91-.22-.29-.37-.84-.44-1.11-.14.02-.38.06-.66.17-.14.07-.28.17-.4.27-.19.15-.36.32-.46.43-.18.18-.53.78-.53.79l-.41.83.13-.92c0-.01.08-.64.09-.86-.12.27-.3.59-.57.82l-.01.01c-.55.36-1.09.88-1.09.88l-.35.36.09-.49c0-.01.1-.52.1-.61l.02-.27c-.16.14-.39.28-.67.33l-.4.05c-.44.05-.91.11-.95.3-.04.13-.01.29.02.46.05.24.09.47-.04.68-.13.32-.59.44-.59.44h-.06l-.04-.03c-.07.08-.15.2-.12.29l.01.05c0 .23.17.56.17.57l.11.21h-.24s-.64-.11-.94-.51c-.25-.31-.3-.79-.32-1-.08-.13-.15-.31-.09-.51l.01-.04c.04-.07.12-.16.2-.24l.17-.21-.11.03c-.1.02-.22.08-.29.15-.11.1-.28.17-.43.17l-.18-.04a.47.47 0 0 1-.16-.1l-.03-.04-.1-.05c-.01 0-.35-.17-.58-.17l-.04-.01c-.28-.07-.59.25-.59.25l-.25.26v-.37s.1-.72.5-1.12l.01-.01c.48-.37.94-.33 1.01-.32.05-.06.12-.11.2-.15.11-.06.28-.07.45-.07.18-.01.39-.02.41-.06l-.12-.1c-.11-.05-.25-.11-.43-.14-.15-.03-.28-.09-.38-.15a.547.547 0 0 1-.21-.22c-.05-.1-.06-.2-.04-.3l.01-.06h-.04v-.15s-.13-.13-.33-.21c-.27 0-.68.09-.68.09l-.32.08.15-.29s.42-.72 1.03-.83c.5-.07.87.18 1 .29.11-.08.26-.1.47.01.21.1.31.27.41.43.08.13.15.25.28.29h.02c.15.06.39.06.64.03.39-.04.79-.16.9-.21l.31-.2c.3-.2.7-.47.9-.54.19-.06.73-.47.99-.67-.18-.13-.49-.36-.68-.55l-.21-.23c-.21-.22-.47-.51-.58-.57-.11-.05-.49-.2-.85-.31-.24-.07-.45-.13-.55-.13-.39 0-1.35-.38-1.35-.38l-.3-.15.95-.39.14-.11c-.18-.02-.35-.04-.42-.08l-.19-.11c-.23-.13-.58-.33-.75-.33-.18 0-.61.09-.61.09l-.53.13.38-.38s.6-.42 1.19-.5l.2-.04c-.16-.08-.31-.18-.39-.29-.14-.21-.28-.47-.38-.67l-.12-.23c-.07-.15-.15-.31-.29-.31-.11 0-.25.06-.39.12-.18.07-.36.15-.53.15-.18 0-.35-.08-.46-.21v-.01c-.19-.02-.44-.05-.64-.05-.29 0-.63.41-.63.41l-.26.26v-.37s-.09-.77.33-1.19c.22-.23.51-.36.72-.43v-.01c-.05-.2 0-.38.27-.44.18-.05.4-.04.6-.02l.36.01-.05-.06c-.13-.13-.35-.29-.51-.39l-.2-.12c-.11-.07-.22-.14-.3-.21l-.11.11v-.36s-.08-.36-.29-.51c-.17-.07-.84-.07-.84-.07h-.37l.26-.26s.49-.59 1.27-.69h.02c.48 0 .8.24.98.42.11-.17.26-.27.48-.13.13.09.26.27.38.45.16.21.32.44.4.45.04-.03.08-.14.1-.26.03-.16.03-.35-.01-.47a.803.803 0 0 1-.04-.27c0-.11.02-.22.06-.31.04-.11.12-.2.22-.23l.08-.02c.05 0 .09.01.13.03.1-.12.24-.3.29-.54l.02-.05c.13-.22-.07-.64-.07-.64l-.26-.26h.36c.01 0 .95.2 1.16 1.22l.01.02c0 .19-.05.47-.08.63.1.05.16.14.16.28 0 .26-.17.49-.34.72l-.17.23c-.11.11-.19.29-.22.48-.02.18 0 .38.08.53.09.2.25.46.42.67.14.16.28.29.42.35l.47.21c.32.12.67.27.92.46l.23.16c.45.33 1.17.85 1.39.91.23.08.51.23.57.27.13-.06.45-.18.84-.18l.39.01c.54.01 1.34.04 1.68-.1.21-.08.44-.19.6-.32.12-.11.19-.24.14-.39-.07-.13-.29-.29-.49-.43-.32-.22-.62-.43-.53-.68.07-.19.21-.32.43-.39.06-.02.13-.03.2-.04l.24-.32.22.28h.22l.2-.27.26.26c.24-.03.47-.1.63-.28-.31-.02-.75-.05-1.06-.04h-.04c-.21-.05-.71-.05-1.2-.05-.51 0-1.02 0-1.27-.05h-.02c-.17-.06-.48-.22-.82-.5-.23-.19-.49-.44-.72-.76-.51-.68-1.31-.95-1.31-.95l-.27-.14.27-.13s.87-.48 1.91-.3c.4.08.61.27.99.62l.37.33c.31.22.6.4.89.55.29.14.58.26.89.34.44.13 1.25.12 1.65.1 0-.09-.01-.18-.03-.25-.04-.13-.15-.24-.35-.31l-.43.42-.22-.53-.64.31-.11-.55a.955.955 0 0 1-.32-.22l-.06.1v-.17a.968.968 0 0 1-.14-.36l-.1-.36-.03-.1-.14-.14h.1c-.05-.22-.03-.32.12-.47.11-.11.25-.2.45-.25.18-.05.42-.08.76-.08l.81-.08c.26-.02.47-.04.56-.07.08-.08.14-.21.2-.33.07-.14.14-.28.24-.39l.03-.02c.31-.19 1.28-.29 1.28-.29h.05l.1.06.11-.55c0-.46-.09-.99-.09-.99v-.01l-.01-.01-.06.01c-.05 0-.15-.08-.2-.11a.198.198 0 0 1-.06-.11c-.01-.04 0-.08.01-.12l.04-.06c-.02-.08-.09-.33-.17-.48-.08-.16-.25-.34-.25-.34l-.18-.18h.25s.36-.22.71.13c.22.21.16.47.09.64.13-.02.29-.02.47-.05l.13.61-.04.04-.35.35h-.01c.03.09.06.18.1.25.05.09.12.15.2.15.03-.01.12-.1.19-.18h-.06l.02-.11.11-.51.49-.23.19.25.05-.42h.62l.24.6c-.09.07-.17.13-.26.19l.34.05v.46l.58-.12.14.24.09-.32h.61l.25.61c-.16.07-.27.13-.36.17l.24.08v.01l.87.17h-.87v.33l-.07.03-.49.18c.02.07.05.12.09.15.04.02.22.01.35.01l.13-.26.5-.12.14.33c.06-.14.14-.28.2-.42l.62.23v.5l-.36.16c.1.05.22.11.4.18l-.26.51-.05.01-.34.09.06.03v.06h.32l-.18.17s-.05.05-.05.1.02.09.04.12l.04-.07.22-.42h.61l.05.41zm.17.17c0 .02.01.03.01.05h.2l-.05.05c.06.01.12.03.18.05.09 0 .18.04.25.09a.658.658 0 0 0-.14-.37c-.16-.08-.35.05-.45.13zm-1.33-1.17-.02.02-.05.05c.03-.02.06-.04.14-.09v-.03l-.02-.01-.05.06zm-.52-.1-.01-.01c-.08-.03-.15-.07-.24-.11l.02.02a.4.4 0 0 0 .23.1zm.03-.23.03-.03.02-.03a.77.77 0 0 1 .13-.09l-.11-.27-.24.06-.11.22.28.14zm.45-.08.02.02.03.03.02.03h.07l.35-.15v-.23l-.3-.11-.19.41zm.1.79.24-.06.11-.22-.13-.06v.07l-.21.11-.05.06.04.1zm-1.97-2.06c.06-.05.11-.08.17-.09l-.15-.27-.32.06-.06.3.33.09v-.06l.03-.03zm.5.32c-.01.03-.03.06-.05.09l.02.05.1-.13-.07-.01zm-.07-.33.11.03.42-.19-.13-.3h-.31l-.11.4.02.06zm.15.69.31-.12v-.19h-.09c-.08.1-.15.18-.22.3v.01zm-1.16-.62.09-.46-.01.01-.55.34c-.07-.11-.12-.19-.17-.26l-.03.04c-.04.09-.05.19-.04.26.02.08.05.14.11.17l.04.03c.03.02.07.03.12.03.04 0 .09-.01.11-.03l.17-.14.01.32.04.08c.08.04.18.06.28.04.08-.01.17-.05.24-.12l.06-.09-.49-.13.02-.09zm-2.6-1.97c.02-.02.06-.03.09-.04.05-.09.14-.31-.02-.46-.1-.1-.25-.11-.38-.11l.17.25c.05.1.1.24.14.36zm.32.21.01.02v-.02h-.01zm-.19.13-.01-.07-.04.03.05.04zm.36.32.18-.18-.06-.31-.18.03v.24l.01.18.05.04zm1.14.24.05-.04-.2-.29-.24.11-.06.3.37.05c.01-.05.04-.09.08-.13zm.3-.16c.03.01.07.03.11.06l.07.07c.11-.07.24-.17.29-.2l-.13-.32h-.3l-.04.39zm.28.38c-.01.04-.03.07-.07.12l-.06.05v.11l.11.18.33-.2v-.22l-.31-.04zm-.61.12-.54-.07v.17s0 .05.07.11l.04.06.06.02.13-.04.17-.12.07-.13zm2.86 3.5c0 .05-.01.09-.02.12v.06H213c-.04.07-.11.06-.14 0h-.01v-.02a.298.298 0 0 1 0-.21l.04-.03h.05c.03.01.07.04.1.08zm-.56-.27-.2-.17-.17-.2c0-.04 0-.07.01-.09v-.01h.01c.02-.05.08-.04.15 0h.02l.03.03c.06.05.13.11.17.15l.09.19c.01.14.03.11-.11.1zm-.63-.84-.01.21s-.19.11-.19-.02c0-.06 0-.1.01-.14v-.05h.03c.06-.08.16 0 .16 0zm-2.13-1.36-.18-.08c-.1 0-.1-.11-.1-.11 0-.03.06-.01.1-.01l.39.17.1.13h-.11l-.2-.1zm1.38.92-.29-.18c-.01-.01-.09-.12.01-.12h.1l.56.37s.13.12-.01.12c-.27 0-.18.02-.37-.19zm-.74-.57.01-.04.04-.03.06.01.09.06.05.01.03.04-.01.05c-.02.04-.05.07-.08.09-.05.04-.11.04-.17 0-.03-.02-.05-.05-.08-.09l-.01-.05.03-.04.04-.01zm2.15 2.76-.01-.02-.01.02h.02zm-2.82-2.3c-.39-.2-.74-.36-1-.44l-.09-.03.03-.14-.11-.06c-.14.02-.83.1-1.08.23-.07.08-.13.19-.18.31-.08.15-.16.31-.27.43l-.05.03c-.12.05-.37.07-.69.1-.24.02-.53.04-.81.08h-.01c-.32 0-.54.03-.69.07-.15.04-.24.1-.32.18-.06.05-.05.11-.01.26.21.01.56.08.56.28 0 .18-.1.23-.21.28l-.08.05-.06.11c.15.26.51.33.98.42l.41.08c.47.1.71.3.81.59.03.1.04.21.04.33h.15l-.15.44v.59h-.15l-.06-.01c-.16.31-.43.45-.71.51l.09.1h-1.53l-.07.02c-.13.04-.21.1-.24.2-.02.04.19.18.41.33.24.17.49.35.59.54l.01.02c.11.3-.01.54-.22.73-.19.17-.46.29-.69.38-.39.16-1.23.14-1.8.12l-.38-.01c-.35 0-.64.12-.73.16v.12s-.52.15-.68.47l-.02.03c-.1.14-.16.3-.2.43.25-.12.63-.24 1.04-.13l.53.18c.19.06.29.1.44.1.25 0 .93-.27.93-.27l.41-.2-.21.4s-.49.72-.44 1.02l.06.28c.07.27.11.44.04.68-.01.32-.15.69-.28.95.13-.04.28-.09.46-.12.27-.04.51-.13.72-.24.22-.1.42-.23.6-.36.34-.23.71-.73.71-.73l.26-.26v1.46c.06.24.12.69.15.99.14-.11.32-.24.48-.29l.04-.02c.17-.1.46-.26.62-.48.08-.17.24-.74.24-.74h.31s.08.67.25.93l.01.02c.11.22.29.68.41 1.01.09-.21.21-.46.35-.6.14-.14.29-.31.38-.45.08-.12.13-.21.13-.26 0-.08-.02-.21-.04-.33a.497.497 0 0 1-.03-.16V208l-.02-.1-.44-1.73.91 2.06.21.16c.16.11.34.23.49.38.15.12.3.28.42.42.02-.43.05-1.09.05-1.5 0-.53-.35-1.4-.35-1.4l-.3-.61.53.42c.01.01.47.38.84.74.2.16.38.41.5.59.08-.22.16-.54.16-.85 0-.49-.59-1.08-.59-1.08l-.66-.65.83.41c.01 0 .72.36.98.45.19.07.33.14.43.23-.01-.2-.03-.41-.07-.59-.09-.19-.28-.39-.46-.58-.13-.14-.26-.28-.34-.4-.1-.16-.21-.35-.28-.53a1.18 1.18 0 0 1-.11-.45c0-.23-.06-.63-.08-.77-.09-.11-.24-.3-.3-.37-.11-.1-.22-.43-.22-.43h.2s.08.22.16.28l.07.08-.02-.09.35.35s.19.18.44.36l.25.24c-.03-.13-.07-.26-.11-.33-.05-.11-.07-.24-.09-.37a1.62 1.62 0 0 0-.09-.38c-.05-.16-.02-.34.03-.54.05-.19.1-.41.06-.67-.08-.45-.09-.91-.09-1.07l-1.79-1.79c-.28-.2-.57-.39-.84-.56h-.01l-.01-.01zm3.9 30.99c-.05.17-.09.51.18.72.16.13.3.22.42.29-.09-.22-.17-.49-.11-.67a1 1 0 0 1 .26-.42l-.11-.06-.17-.07h-.02c-.21.05-.35.14-.45.21zm-.27-.17.03-.07.03-.04.14-.04c.12-.07.28-.15.49-.19h.05c.04 0 .09.01.13.03h.01c.19.05.45.14.52.16.33-.12-.21-.73-.23-.76-.29-.27-.26-.74-.24-1.01v-.11c0-.09.09-.4.21-.75.15-.44.34-.96.45-1.22.11-.35.38-.71.61-1.01.15-.2.28-.37.31-.46.03-.1.03-.18 0-.25a.515.515 0 0 0-.14-.21.72.72 0 0 1-.26-.26c-.06-.1-.11-.22-.16-.37-.01-.04-.13-.06-.26-.09-.22-.04-.49-.09-.71-.3l-.13-.1c-.44-.33-.84-.63-.84-1.95 0-.58.12-1.05.28-1.4.24-.51.58-.81.81-.93.12-.07.34-.11.62-.16.57-.1 1.43-.26 2.02-.73 1.19-.95 1.16-2.42 1.14-3.28l-.01-.27c0-.57-.74-2.42-1.19-3.55-.18-.46-.32-.8-.35-.91-.07-.31-.28-1.52-.21-2.52.05-.6.19-1.14.53-1.4.19-.15.36-.26.52-.36.29-.17.54-.33.82-.78.2-.32.25-.51.31-.71.08-.26.16-.52.52-1.04.36-.5.65-.84.85-1.05h-.27c-.34 0-.86.16-.86.16l-.68.28.52-.52s1.09-1.27 1.36-1.63c.2-.31.32-.95.38-1.4-.16.16-.47.34-.81.54-.27.16-.57.33-.83.52-.58.41-.67 1.16-.67 1.16h-.3s0-.9-.09-1.14c-.09-.28-.19-.5-.27-.67-.01.23-.03.48-.07.65-.08.31-.16.49-.29.8l-.19.43c-.17.33-.39.79-.63 1.62-.11.4-.16.86-.17 1.27-.03.57.02 1.06.07 1.2.06.19-.05.8-.17 1.41-.09.48-.18.98-.18 1.22 0 .34.07.97.22 1.7.12.63.29 1.34.5 2.01.23.74.58 1.93.57 3.01-.01 1.13-.4 2.15-1.68 2.5-2.28.6-3.42-1-4.18-2.07l-.21-.28c-1.04-1.54-1.32-2.87-1.43-3.44l-.05-.2c-.03-.16-.11-.34-.19-.5-.04.08-.09.17-.15.26-.11.17-.26.35-.42.51-.24.24-.41.81-.41.81v.64l-.29-.57c0-.01-.36-1.01-.53-1.37-.08-.12-.14-.3-.19-.48l-.11.29c-.19.29-.53.48-.73.58l-.07.04c-.26.08-.6.42-.6.42l-.25.26v-.22c-.16.18-.43.45-.8.64l-.02.01c-.12.03-.62.29-.89.43v.06s.16.75.42 1.09l.02.03c.09.19.34.52.64.84.29.3.61.6.86.76l.01.01c.42.33 2.39 1.36 2.69 1.52l.04-.08s1.63 1.08 1.63 1.88c0 .87-.86 1.94-.86 1.94l-.22-.21c.01 0 .78-.96.78-1.73 0-.54-.96-1.26-1.33-1.52l-.02.01s-1.24.3-1.62.3h-2.1c-.79 0-1.15.69-1.34 1.05-.03.05-.07.15-.11.19-.06.05-.04.32-.03.63.01.27.02.58-.02.83v.02c-.08.3-.01.55.08.73.02-.18.05-.37.1-.47.08-.16.15-.66.15-.66v-.79l.29.73c.01 0 .21.59.21.78l-.01.04s-.09.44-.09.61c0 .16.02.34.04.48.07-.07.16-.13.26-.16.16-.29.56-.47.56-.47h.19l-.04.18c0 .01-.09.52-.09.7l.09.82c0 .21-.07.34-.28.44-.17.08-.44.12-.86.17-.44.05-.74.03-.99-.09-.26-.11-.45-.31-.7-.59-.26-.32-.26-.58-.26-.79 0-.13 0-.22-.14-.28h-.02c-.05-.04-.12.04-.18.14l-.17.26c-.08.16-.15.21-.34.33l-.25.17c-.04.03-.05.05-.04.06.05.07.17.15.3.24l.02.01c.16.11.25.2.28.32.04.12.01.24-.05.41-.09.29-.41.21-.78.11-.18-.05-.39-.1-.55-.1l-.09-.02c0 .04.04.13.08.22.07.16.16.36.16.56 0 .18.04.33.09.45.05.12.12.2.19.24.04.02.12-.05.2-.12.07-.06.15-.13.22-.16.23-.1.42-.1.62-.1.19 0 .26.06.26.21 0 .05-.03.11-.06.2-.06.19-.05.16-.16.33-.05.09-.12.19-.17.35v.02l1.35.2-.14.15h.02l.16-.03.08-.06.02-.08-.04-.17c-.15-.25.01-.43.22-.57.07-.04.3-.18.38-.18.13 0 .3.03.47.08.19.05.37.13.48.18h.98c.29 0 .51.03.68.07.17.04.3.09.4.14.07.03.18.04.29.04.12 0 .24-.02.32-.04l.05-.02.14-.16c.11-.14.24-.3.28-.4.05-.1-.08-.54-.29-1.31l-.1-.32c-.14-.54-.23-1.03-.26-1.42-.03-.38 0-.7.1-.9.17-.35.49-.32.9-.28l.42.03 1.25-.02v.15s-.19.61-.39.9c-.02.07-.02.26-.01.46.02.25.07.52.11.6l.02.07c0 .07.04.23.1.41.07.2.16.43.24.61.13.25.41.51.58.66l.12.12c.09.06.22.18.36.31.15.14.22.4.27.35l.03-.03c.03-.01-.02.01-.04.01l-.06-.08c-.07-.12-.16-.27-.16-.44v-1h.3s.17.65.41.89l.3.34v-1.33h.3s.16.5.25.66l.01.02c.03.1.13.16.25.22.14.09.31.19.45.38.2.19.3.43.34.66.04.27-.01.54-.14.72l-.01.01c-.11.11-.21.2-.34.29-.14.09-.32.16-.56.22-.25.05-.43-.03-.59-.1-.15-.07-.29-.13-.48-.02-.21.14-.13.27-.08.34.05.06.08.12.08.18l-.04.2c-.02.12-.06.28-.06.44v.04l.12.06c.07.01.15.01.19-.03l.03-.03c.11-.1.22-.15.34-.15.11 0 .23.05.33.15l.04.03c.15.15.14.28.04.39-.09.1-.27.16-.44.23h-.02c-.09.03-.19.13-.28.24-.06.08-.11.17-.14.24.14.06.33.15.37.15.13 0 .66.41.66.41l.1.09c.01-.13.01-.35.01-.45 0-.12.04-.25.11-.35.07-.1.18-.16.31-.16.25 0 .25.24.25.7 0 .17 0 .27.02.32.01.02.05.05.12.07v-.02zm-2.22-.48c-.1.14-.22.37-.14.59l.22.41c.03-.17.09-.36.19-.46.1-.1.24-.17.38-.22l-.13-.04c-.19-.06-.42-.14-.52-.28zm-.37-2.41c-.2-.03-.64-.06-.81.08l-.02.01c-.13.06-.28.32-.39.56.2-.11.45-.21.68-.21.09 0 .46.12.58.15v-.46l-.04-.13zm-9.4-.84c-.07.13-.15.38-.01.62.14.17.32.29.47.37a.989.989 0 0 1 0-.42l.01-.01c.04-.13.15-.28.26-.4-.19-.04-.35-.08-.57-.11a.75.75 0 0 1-.16-.05zm-1.71-2.37c-.2-.01-.65.01-.89.25-.15.15-.22.36-.27.53.18-.12.42-.25.63-.25.21 0 .44.08.63.16l-.04-.37c0-.09-.03-.23-.06-.32zm1.57-2.33c-.13-.12-.39-.32-.72-.32-.24 0-.47.12-.66.24.19.02.4.09.51.27l.28.44.31-.2.28-.43zm.33.07-.03.02s-.23.31-.32.5c.03-.04.05-.07.08-.12l.17-.27.1-.13zm-5.64-5.18c.03.19.09.43.22.6.12.16.3.26.45.32-.04-.12-.08-.25-.08-.38-.07-.23.05-.42.16-.54a.644.644 0 0 0-.28-.07c-.2 0-.4.05-.47.07zm-.12-.46h.59c.33 0 .64.32.64.32l.04.03c.07-.03.22-.1.27-.24l.02-.04c.06-.1.03-.28 0-.47-.04-.19-.07-.4-.02-.59.1-.38.67-.45 1.2-.52l.39-.05c.48-.08.84-.59.84-.59l.33-.33-.2 1.39c.21-.18.51-.42.8-.62.29-.26.68-1.32.68-1.32l.19-.36.1.39s.1.48.1.67l-.02.27.21-.28c.11-.11.29-.29.49-.46.14-.11.3-.22.46-.3.34-.14.63-.18.79-.2l-.05-.08s.74-.43 1.11-.55c.49-.25.87-.79.87-.79l.02.03c-.04-.3-.1-.76-.16-.99-.03-.12-.01-.6-.01-.75-.16.18-.37.39-.49.47-.18.14-.4.28-.63.39-.25.12-.51.22-.8.27-.55.09-.85.29-.85.29h-.25l.11-.22s.45-.73.45-1.22v-.04c.06-.17.03-.31-.03-.54l-.65.33c-.04.04-.19.17-.36.29-.18.13-.39.28-.58.37-.33.17-.66.75-.66.75l-.1-.04.08.07-.11.11s-.96.76-1.24.86c-.16.05-.55.31-.83.5l-.34.22c-.13.06-.58.19-1.01.24-.28.03-.56.03-.77-.04-.24-.07-.35-.24-.46-.42-.07-.13-.15-.26-.29-.32-.14-.07-.21 0-.26.09-.17.37-.23.35-.57.69l-.03.08.02.1c.02.04.05.08.1.11.07.04.17.08.29.1.19.05.37.11.5.18.09.04.16.1.21.16.06.08.09.17.07.26l-.03.08c-.1.19-.39.2-.67.22-.13 0-.26.01-.31.03-.06.04-.11.07-.13.1-.01.03-.01.08.02.17.13.21.1.37.05.57-.01.09-.04.19-.04.31 0 .05.02.09.04.11l.05.03.07.01c.08 0 .17-.03.22-.08.12-.11.28-.19.42-.23.17-.04.33-.03.42.04.14.08.13.2.06.34-.05.1-.15.2-.24.3l-.14.17c-.02.06-.01.12.01.17zm-1.24-1.82c-.15 0-.44.03-.73.25-.16.16-.25.37-.32.55.15-.07.32-.12.5-.08.18 0 .38.07.53.13l.04-.29c.04-.13.04-.26.02-.37-.02-.07-.04-.13-.04-.19zm.55-2.37a.987.987 0 0 0-.72-.19c-.25.04-.46.22-.6.38.09-.01.37-.05.45-.02.18.06.33.21.43.33.05-.05.15-.16.21-.26l.04-.08h.09c.05 0 .09-.1.1-.16zm5.38-1.26c.08-.14.42-.68.77-.86.18-.09.37-.22.54-.34l.39-.31h.06c.2 0 .66-.37.66-.37l.03.07-.02-.07c-.05-.32.07-.62.2-.84-.22.07-.45.13-.59.13-.2 0-.31-.04-.54-.12l-.51-.17c-.57-.15-1.04.25-1.04.25l-.26.25v-.36s0-.49.29-.9c.13-.25.42-.42.65-.52-.14-.06-.32-.14-.46-.19-.27-.07-1.02-.62-1.48-.95l-.23-.17c-.22-.17-.56-.3-.86-.42l-.48-.21a1.66 1.66 0 0 1-.53-.44 3.51 3.51 0 0 1-.46-.73c-.11-.2-.14-.46-.1-.7.03-.25.14-.49.29-.64l.14-.2c.15-.2.28-.38.28-.55 0-.01 0-.02-.02-.02H196.48l-.02-.01h-.01a1.08 1.08 0 0 1-.21-.05l-.01-.01h-.01l-.01-.01c-.22-.09-.43-.24-.43-.24l-.01-.01-.02.02c-.02.06-.03.13-.03.2l.03.18c.05.17.05.41.01.61-.04.22-.13.42-.26.49l-.02.01c-.28.09-.52-.25-.75-.57-.11-.15-.22-.31-.3-.37-.03-.01-.06.03-.09.08l-.04.07v.01l-.03.05-.01.01v.01c-.06.11-.12.23-.2.31-.13.13-.26.21-.41.31l-.24.19c.05.04.15.1.24.15l.2.13c.17.1.42.28.56.43l.13.16c.05.08.06.16.01.24l-.01.01c-.11.18-.37.16-.66.15-.18-.02-.38-.03-.52.01-.05.01-.05.04-.05.08H193.38l.05.05s.31.43.31.64c0 .17.16.58.16.58l.05.09h.01c.11 0 .26-.06.41-.12.17-.07.35-.15.51-.15.33 0 .45.26.56.49l.12.22c.09.19.22.44.36.64.16.23.79.4.79.4v.3s-.35 0-.79.09c-.13.02-.24.05-.35.08.24.06.55.24.76.36l.19.1c.08.05.42.07.68.07.06-.01.11-.01.17.01h.16l.01.3h-.31c-.35.28-.36.31-.75.48.28.1.67.22.87.22.13 0 .38.06.64.14.37.12.78.27.9.33.16.08.44.4.66.64l.2.22c.2.2.52.43.7.56zm-7.31-6.39c-.17.05-.43.16-.63.37-.15.15-.21.41-.23.62.15-.13.36-.25.58-.25.16 0 .34.02.5.04-.01-.05-.01-.11-.01-.17 0-.31 0-.16-.09-.4l-.06-.11-.06-.1zm.81-2.59c-.13-.15-.42-.4-.81-.4-.35.05-.63.21-.82.36.22.01.49.04.61.1l.02.01c.17.11.28.32.35.5l.18-.12.11-.08.04-.06.02-.05.05-.03c.08-.04.15-.1.21-.15l.04-.08zm3.1-.72c.03-.14.06-.38.07-.55a1.26 1.26 0 0 0-.63-.86c.06.21.09.45 0 .63-.06.29-.21.5-.33.63.07.06.16.12.26.15h.01l.01.01H196.5l.01.01h.01l.46-.02h.07zm10.56-1.02-.1-.38h.02s.56 0 .83.18c.45.27.73.84.73.84v.02c-.07.07-.32-.08-.51-.2l-.14-.08h-.36c-.09 0-.16-.02-.21-.05-.06-.04-.09-.09-.09-.14v-.26l-.17.09v-.02zM148.58 233.43h38.21v-42.42h-38.21v42.42zm38.21.4h-38.21v25.49c0 5.02 2.14 9.54 5.6 12.82 3.47 3.29 8.27 5.32 13.55 5.32 5.26 0 10.02-2.04 13.47-5.32 3.45-3.29 5.59-7.83 5.59-12.82v-25.49zm.4-.2v25.69c0 5.1-2.19 9.74-5.72 13.1-3.52 3.36-8.37 5.44-13.74 5.44-5.38 0-10.28-2.08-13.82-5.44-3.54-3.34-5.73-7.97-5.73-13.1v-68.71h39.01v43.02z"/>
    <path fill-rule="nonzero" d="M225.88 233.63v25.69c0 5.09-2.21 9.73-5.75 13.09-3.54 3.36-8.43 5.45-13.79 5.45-5.42 0-10.3-2.07-13.84-5.41-3.53-3.35-5.71-7.99-5.71-13.13v-25.89h39.09v.2zm-.4 25.69v-25.49h-38.29v25.49c0 5.03 2.13 9.56 5.59 12.84 3.45 3.28 8.25 5.3 13.56 5.3 5.26 0 10.05-2.05 13.52-5.34 3.46-3.28 5.62-7.82 5.62-12.8z"/>
    <path fill-rule="nonzero" d="M187.19 233.43h38.29v-42.42h-38.29v42.42zm38.49.4h-38.89v-43.22h39.09v43.22h-.2z"/>
    <path fill="#C8B32F" d="M192.62 241.06v3.13l-1.32.35v3.49l1.28.35v3.05c-.82.27-1.46 1-1.46 1.92 0 .92.64 1.65 1.46 1.93v2.14l-1.28.43.19 3.39 1.32.27c.17.97.47 1.88.88 2.75l-.1.1c-.82.82-.73 2.01.18 2.75.55.46 1.37.54 2.02.36.83.92 1.84 1.84 2.93 2.48l.62-1.04c.58.37 1.22.68 1.86.95l-.63 1.09c-1-.42-1.95-.95-2.84-1.64l-.38 1.28c1.01.64 2.12 1.29 3.21 1.65l.98-.89c.87.3 1.76.48 2.69.62.18.9 1 1.55 2.02 1.55 1.01 0 1.83-.65 2.01-1.55.85-.13 1.69-.35 2.5-.63l.98.9c1.11-.36 2.2-1.01 3.22-1.65l-.37-1.28c-.9.7-1.85 1.23-2.85 1.64l-.63-1.1c.65-.26 1.28-.57 1.87-.94l.6 1.04c1.11-.64 2.1-1.56 2.93-2.48.65.18 1.38.1 2.03-.36.91-.74 1.01-1.93.26-2.75l-.09-.1c.4-.87.71-1.78.88-2.75l1.32-.27.19-3.39-1.38-.46v-2.11c.83-.28 1.48-1.01 1.48-1.93 0-.92-.65-1.65-1.48-1.92v-3.02l1.38-.38v-3.49l-1.38-.36v-3.12c2.38-.78 1.82-3.85-.55-3.85-.92 0-1.74.56-2.01 1.38h-2.47l-.37-1.28h-3.67l-.37 1.28h-2.02c-.27-.82-1.1-1.38-2.01-1.38-.92 0-1.75.56-2.02 1.38h-2.12l-.36-1.28h-3.66l-.36 1.28h-2.54c-.27-.82-1.1-1.38-2.02-1.38-2.37 0-2.93 3.07-.55 3.85zm5.77 27.11c-.54-.41-1.06-.88-1.58-1.34.54-.64.54-1.56.08-2.21l3.31-3.65-1-.82 1.27-1.4.91.74 3.85-4.21c.1.1.1.1.19.1v5.73l-1.19.32v3.48l1.29.34v4.33c-.56.19-.92.56-1.21 1.11-.73-.06-1.42-.25-2.1-.48l.28-1.26c-1.2-.38-2.29-.92-3.21-1.67l-.89.89zm-5.72-9.78 1.19-.18v-3.12c.56-.17 1.11-.63 1.28-1.19h3.58v-1.11h2.2V254h-3.19l.36 1.28h3.66l.36-1.28h2.12c.08.09.08.27.18.36l-3.13 3.34-1.18-.5-2.37 2.66.72 1.1-2.56 2.84c-.38-.09-.75-.09-1.11-.09-.46-1-.73-2.11-.82-3.3h-1.29l.03.31a5.19 5.19 0 0 1-.03-1.42v-.91zm1.29-1.19 1.37.28s.1 2.2 0 1.74c0-.55.19 1.75.19 1.75l-1.37.46c-.19-.75-.19-1.38-.19-2.11v-2.12zm.55 7.88c.37-.36.92-.36 1.28-.08.37.27.46.83.1 1.19a.98.98 0 0 1-1.28.1c-.37-.29-.46-.84-.1-1.21zm15.58 5.14c-.62.19-1.27.35-1.91.47-.19-.46-.75-.92-1.38-1.11v-5.41h-1.2v-1.83h1.11v-6.96c.09 0 .09-.1.17-.1l2.97 3.4-.67 1 2.39 2.66 1.28-.55-2.18-2.39.9-.73-3.68-4.21c.1-.1.1-.29.19-.37h2.23l.34 1.19h3.67l.37-1.28h-3.41v-1.11h-3.2c0-.17-.09-.27-.19-.46l3.95-4.4-.96-.78 1.43-1.68 1 .81.48-.54-2.51 2.93 1.3.54 2.28-2.64-.82-1.11 4.13-4.58c.1 0 .17.08.27.08v4.23h1.28v1.91h-1.28v4.23c-.63.18-1.09.64-1.38 1.29h-2.4l-.34-1.21h-3.67l-.37 1.28h3.3v1.11h3.58c.19.56.65 1.02 1.28 1.19v3.12l1.28.19v.9c0 .38-.02.74-.05 1.11h-1.23c-.1 1.19-.36 2.3-.82 3.3-.37-.08-.73 0-1.1.09l-2.62-2.9.69-1.04-2.39-2.66-1.28.55 2.23 2.44-.95.78 3.31 3.65c-.46.65-.46 1.57.09 2.21-.55.49-1.11.98-1.71 1.42l.05-.05-.92-.92c-.9.75-2.01 1.29-3.2 1.67l.27 1.27zm-3.19-4.95 1.36-.36v-3.48l-1.36-.37v4.21zm-1.57 6.24c0-.46.36-.82.92-.82.46 0 .91.36.91.82 0 .46-.36.83-.91.83-.46 0-.92-.37-.92-.83zm13.01-14.31-1.37.28s-.08 2.2-.08 1.74c0-.55-.19 1.75-.19 1.75l1.38.46c.09-.75.17-1.38.17-2.11l.02-2.12h.07zm-.45 7.88c-.27-.36-.92-.36-1.29-.08-.36.27-.46.83-.09 1.19.38.37.92.37 1.28.1.38-.29.38-.84.1-1.21zm-18.42-3.29 1.28.55 2.38-2.66-.73-1.11-2.93 3.22zm-1.72-9.07h-2.51c-.27-.65-.73-1.11-1.38-1.29v-4.23h-1.19v-1.91h1.23v-4.23c.1 0 .18-.08.27-.08l4.86 5.4.96-.77 2.22 2.42.74-1.1-2.39-2.65-1.2.51-4.27-4.73c0-.09.1-.19.1-.28h2.54l.36 1.28h3.66l.36-1.28h2.12c.18.65.73 1.11 1.37 1.28v2.57h1.3v3.11l1.36-.36v-3.48l-1.36-.37v-1.47c.53-.17 1.09-.63 1.36-1.28h2.02l.37 1.28h3.67l.37-1.28h2.47c0 .09.09.19.09.28l-4.46 4.95.23-.28-1.28-.55-2.28 2.66.77 1.04-3.26 3.73c0-.1-.07-.1-.17-.1v-5.86h-1.28v-3.12l-1.38.37v3.48l1.38.36v4.77c-.1 0-.1.1-.19.1l-3.95-4.41-.93.76-2.19-2.31-.72 1.09 2.39 2.57 1.16-.49 3.32 3.71c-.1.09-.18.19-.18.26h-2.12l-.36-1.28h-3.66l-.34 1.21zm-5.34.63c0-.46.36-.82.91-.82.46 0 .91.36.91.82 0 .46-.37.82-.91.82-.55 0-.91-.36-.91-.82zm25.93-9.17-1.37.36v3.49l1.37.38v-4.23zm-.17 9.17c0-.46.37-.82.92-.82.46 0 .9.36.9.82 0 .46-.36.82-.9.82-.55 0-.92-.36-.92-.82zm-4.59-13.57h-2.11v-1.19h2.11v1.19zm4.59-.64c0-.46.37-.82.92-.82.46 0 .9.36.9.82 0 .46-.36.83-.9.83-.46.09-.92-.27-.92-.83zm-17.15.64h-2.26v-1.19h2.26v1.19zm4.21-.64c0-.46.37-.82.92-.82.46 0 .92.36.92.82 0 .46-.36.83-.92.83-.46.09-.92-.27-.92-.83zm-11.27 5.04 1.37.36v3.49l-1.37.38v-4.23zm.21-5.04c0-.46-.36-.82-.92-.82-.46 0-.9.36-.9.82 0 .46.36.83.9.83.46.09.92-.27.92-.83z"/>
</svg>
